<svg id="Layer_1" data-name="Layer 1" xmlns="http://www.w3.org/2000/svg" xmlns:xlink="http://www.w3.org/1999/xlink" viewBox="0 0 830.93 705.93"><defs><style>.cls-1,.cls-2{fill:#636a7c;}.cls-1{opacity:0.08;}.cls-2{opacity:0.05;}.cls-3{opacity:0.43;}.cls-4{fill:#4ba4ff;}.cls-5{fill:#4c5368;}.cls-16,.cls-6{fill:#152438;}.cls-7{isolation:isolate;}.cls-8{fill:#c5cfea;}.cls-9{fill:#98a1bc;}.cls-10{fill:url(#linear-gradient);}.cls-11{fill:url(#linear-gradient-2);}.cls-12{fill:url(#linear-gradient-3);}.cls-13,.cls-15,.cls-17,.cls-18,.cls-19,.cls-20,.cls-21,.cls-22,.cls-23,.cls-24,.cls-25,.cls-26,.cls-27,.cls-28,.cls-29,.cls-30,.cls-31,.cls-32{fill:none;}.cls-13{stroke:#092039;}.cls-13,.cls-15,.cls-16,.cls-17{stroke-miterlimit:10;}.cls-13,.cls-17{stroke-width:5px;}.cls-14{fill:#0d1826;}.cls-15{stroke:#152438;stroke-width:1.06px;opacity:0.4;}.cls-16{stroke-width:2px;stroke:url(#linear-gradient-4);}.cls-17{stroke:url(#linear-gradient-5);}.cls-18{stroke:#cddbf9;}.cls-18,.cls-19,.cls-20,.cls-21,.cls-22,.cls-23,.cls-24,.cls-25,.cls-26,.cls-27,.cls-28,.cls-29,.cls-30,.cls-31,.cls-32{stroke-linecap:round;stroke-linejoin:round;stroke-width:3px;}.cls-19{stroke:url(#linear-gradient-6);}.cls-20{stroke:#636a7c;}.cls-21{stroke:url(#linear-gradient-7);}.cls-22{stroke:url(#linear-gradient-8);}.cls-23{stroke:#3a435f;}.cls-24{stroke:url(#linear-gradient-9);}.cls-25{stroke:url(#linear-gradient-10);}.cls-26{stroke:url(#linear-gradient-11);}.cls-27{stroke:url(#linear-gradient-12);}.cls-28{stroke:url(#linear-gradient-13);}.cls-29{stroke:url(#linear-gradient-14);}.cls-30{stroke:url(#linear-gradient-15);}.cls-31{stroke:url(#linear-gradient-16);}.cls-32{stroke:url(#linear-gradient-17);}.cls-33{fill:url(#linear-gradient-18);}.cls-34{fill:url(#linear-gradient-19);}.cls-35,.cls-46{font-size:38.47px;}.cls-35,.cls-40,.cls-46{fill:#fefefe;}.cls-35,.cls-40,.cls-43,.cls-46{font-family:Montserrat-ExtraBold, Montserrat;font-weight:800;}.cls-35{letter-spacing:-0.02em;}.cls-36{letter-spacing:-0.04em;}.cls-37{letter-spacing:0em;}.cls-38{fill:url(#linear-gradient-20);}.cls-39{fill:url(#linear-gradient-21);}.cls-40{font-size:43.66px;letter-spacing:-0.01em;}.cls-41{letter-spacing:0.01em;}.cls-42{letter-spacing:0em;}.cls-43{font-size:25.28px;fill:#fff;}.cls-44{letter-spacing:-0.01em;}.cls-45{letter-spacing:-0.02em;}.cls-47{fill:#092039;}</style><linearGradient id="linear-gradient" x1="892.97" y1="298.98" x2="968.8" y2="298.98" gradientUnits="userSpaceOnUse"><stop offset="0" stop-color="#fcaf88"/><stop offset="1" stop-color="#f96876"/></linearGradient><linearGradient id="linear-gradient-2" x1="900.87" y1="268.06" x2="960.9" y2="268.06" xlink:href="#linear-gradient"/><linearGradient id="linear-gradient-3" x1="1225.67" y1="425.08" x2="1305.43" y2="425.08" xlink:href="#linear-gradient"/><linearGradient id="linear-gradient-4" x1="492.21" y1="291.04" x2="571.76" y2="291.04" xlink:href="#linear-gradient"/><linearGradient id="linear-gradient-5" x1="510.87" y1="291.92" x2="553.1" y2="291.92" xlink:href="#linear-gradient"/><linearGradient id="linear-gradient-6" x1="196.38" y1="193.05" x2="300.95" y2="193.05" xlink:href="#linear-gradient"/><linearGradient id="linear-gradient-7" x1="196.38" y1="208.49" x2="250.17" y2="208.49" xlink:href="#linear-gradient"/><linearGradient id="linear-gradient-8" x1="263.74" y1="208.49" x2="394.91" y2="208.49" xlink:href="#linear-gradient"/><linearGradient id="linear-gradient-9" x1="196.38" y1="254.79" x2="295.58" y2="254.79" xlink:href="#linear-gradient"/><linearGradient id="linear-gradient-10" x1="301.64" y1="254.79" x2="317.06" y2="254.79" xlink:href="#linear-gradient"/><linearGradient id="linear-gradient-11" x1="196.38" y1="334.23" x2="257.68" y2="334.23" xlink:href="#linear-gradient"/><linearGradient id="linear-gradient-12" x1="267.77" y1="334.23" x2="377.81" y2="334.23" xlink:href="#linear-gradient"/><linearGradient id="linear-gradient-13" x1="383.79" y1="334.23" x2="398.95" y2="334.23" xlink:href="#linear-gradient"/><linearGradient id="linear-gradient-14" x1="196.38" y1="349.66" x2="244.18" y2="349.66" xlink:href="#linear-gradient"/><linearGradient id="linear-gradient-15" x1="250.24" y1="349.66" x2="364.83" y2="349.66" xlink:href="#linear-gradient"/><linearGradient id="linear-gradient-16" x1="196.38" y1="395.97" x2="241.56" y2="395.97" xlink:href="#linear-gradient"/><linearGradient id="linear-gradient-17" x1="247.62" y1="395.97" x2="294.59" y2="395.97" xlink:href="#linear-gradient"/><linearGradient id="linear-gradient-18" x1="595.97" y1="462.3" x2="755.23" y2="462.3" xlink:href="#linear-gradient"/><linearGradient id="linear-gradient-19" x1="853.7" y1="637.1" x2="1019.14" y2="637.1" xlink:href="#linear-gradient"/><linearGradient id="linear-gradient-20" x1="1094.25" y1="558.9" x2="1242.66" y2="558.9" xlink:href="#linear-gradient"/><linearGradient id="linear-gradient-21" x1="1182.27" y1="295.4" x2="1328.52" y2="295.4" xlink:href="#linear-gradient"/></defs><path class="cls-1" d="M932,270.63A210.44,210.44,0,0,0,905.28,257c-28.47-11.65-60.44-13.39-90.7-7.87-31.26,5.69-62.29,20-81.14,45.55-8,10.82-13.48,23.24-18.28,35.79-12.12,31.69-20.66,63.44-19.73,97.39.84,30.51,1.64,63.1-14.79,90.15-12.11,19.94-31.89,33.93-49.69,49.21-24,20.56-45.46,45-56.72,74.2s-11,63.89,6.13,90.2c25.8,39.55,80,49.58,127.78,48.95s97.87-7.79,141.68,11c27.48,11.78,49.67,32.75,75,48.49,42.9,26.63,94.24,37.74,144.94,39.65S1171,874.76,1221.3,868c30.94-4.19,64.4-9.6,85.88-31.88,11.19-11.6,17.89-26.72,22.27-42.11a176.25,176.25,0,0,0,1.26-91.3c-6.15-24.11-17.53-47.93-14.72-72.63,3.21-28.12,23.91-50.68,41-73.46,15.65-20.87,29.08-43.79,35.8-68.87,19-70.73-22-149.2-86.72-185.37-49.29-27.56-107.74-31.54-162.37-20.7-26.17,5.2-48.94,17.78-75.18,22.78-28.33,5.41-58.24,4.56-85.34-5.94C965.06,291.44,948.81,280.48,932,270.63Z" transform="translate(-566.5 -174.07)"/><path class="cls-2" d="M1065.67,314.93c-28.44-27.26-67.94-40-106.54-39.66s-76.41,12.92-110.89,31.07c-29.85,15.72-57.85,35.72-89.47,47.08-29.41,10.55-61.25,13.35-89.57,26.76-8.5,4-16.77,9.13-22.75,16.62C638.27,407,635.18,420.71,634,434a161.14,161.14,0,0,0,11.59,75.57c17.07,41.09,51.91,77.86,47.83,122.44-1.63,17.7-9.44,34-15.11,50.77-9.11,26.94-12.25,58.6,2.47,82.68,15.93,26.07,48.83,35.89,78.31,32.88S816,782,843.62,770.76,901,750.32,930.16,756c24.37,4.75,45.68,19.46,68,30.82,42.93,21.89,96.74,30.83,137.06,4.07,54.23-36,65-122.47,123-151.46,16.51-8.26,35.13-10.71,52.18-17.67,23.36-9.52,43.61-28,54-51.82s10.37-52.78-1.79-75.66c-19.53-36.75-63.21-50.43-103-56.59-35.74-5.53-70.61-11.18-104.8-23.89-23.12-8.6-36.26-24.68-49.58-45.66C1093.27,349.38,1081.67,330.28,1065.67,314.93Z" transform="translate(-566.5 -174.07)"/><path class="cls-1" d="M1021.85,179.84c-20.73-7.5-40.63-10.78-54.45,9.8-5.82,8.67-6.78,20-3.95,30.1s9.1,18.86,16.63,26.1a86.91,86.91,0,0,0,59.8,24c16.07-.06,31.78-4.6,47.79-5.94,12.52-1.05,25.13-.14,37.68-.75,20.74-1,48.41-6.32,53.88-30a33.92,33.92,0,0,0-9.92-32c-8.76-8-21.12-10.78-33-11.59a129.8,129.8,0,0,0-32.1,1.75c-9.78,1.76-19.45,4.64-29.38,4.76C1058.9,196.26,1040.06,186.43,1021.85,179.84Z" transform="translate(-566.5 -174.07)"/><path class="cls-2" d="M1343.06,617.23A39.16,39.16,0,0,0,1332.91,650a41.66,41.66,0,0,0,19.3,28.55c2.87,1.76,6.2,3.21,9.53,2.67a14.11,14.11,0,0,0,7-3.92c7.4-6.82,11.6-16.34,15.6-25.57,1.41-3.27,2.85-6.63,3-10.19s-1.12-7.22-2.47-10.63c-2.78-7-6.87-22.2-14.51-25C1362,602.9,1348.39,611.69,1343.06,617.23Z" transform="translate(-566.5 -174.07)"/><g class="cls-3"><path class="cls-4" d="M619.92,629a1.8,1.8,0,1,1-1.8-1.8A1.8,1.8,0,0,1,619.92,629Z" transform="translate(-566.5 -174.07)"/><path class="cls-4" d="M645.29,629a1.8,1.8,0,1,1-1.8-1.8A1.8,1.8,0,0,1,645.29,629Z" transform="translate(-566.5 -174.07)"/><path class="cls-4" d="M670.66,629a1.8,1.8,0,1,1-1.8-1.8A1.8,1.8,0,0,1,670.66,629Z" transform="translate(-566.5 -174.07)"/><path class="cls-4" d="M696,629a1.8,1.8,0,1,1-1.8-1.8A1.8,1.8,0,0,1,696,629Z" transform="translate(-566.5 -174.07)"/><path class="cls-4" d="M721.4,629a1.8,1.8,0,1,1-1.8-1.8A1.8,1.8,0,0,1,721.4,629Z" transform="translate(-566.5 -174.07)"/><path class="cls-4" d="M619.92,654.32a1.8,1.8,0,1,1-1.8-1.8A1.81,1.81,0,0,1,619.92,654.32Z" transform="translate(-566.5 -174.07)"/><path class="cls-4" d="M645.29,654.32a1.8,1.8,0,1,1-1.8-1.8A1.81,1.81,0,0,1,645.29,654.32Z" transform="translate(-566.5 -174.07)"/><path class="cls-4" d="M670.66,654.32a1.8,1.8,0,1,1-1.8-1.8A1.81,1.81,0,0,1,670.66,654.32Z" transform="translate(-566.5 -174.07)"/><path class="cls-4" d="M696,654.32a1.8,1.8,0,1,1-1.8-1.8A1.81,1.81,0,0,1,696,654.32Z" transform="translate(-566.5 -174.07)"/><path class="cls-4" d="M721.4,654.32a1.8,1.8,0,1,1-1.8-1.8A1.81,1.81,0,0,1,721.4,654.32Z" transform="translate(-566.5 -174.07)"/><path class="cls-4" d="M619.92,679.69a1.8,1.8,0,1,1-1.8-1.8A1.81,1.81,0,0,1,619.92,679.69Z" transform="translate(-566.5 -174.07)"/><path class="cls-4" d="M645.29,679.69a1.8,1.8,0,1,1-1.8-1.8A1.81,1.81,0,0,1,645.29,679.69Z" transform="translate(-566.5 -174.07)"/><path class="cls-4" d="M670.66,679.69a1.8,1.8,0,1,1-1.8-1.8A1.81,1.81,0,0,1,670.66,679.69Z" transform="translate(-566.5 -174.07)"/><path class="cls-4" d="M696,679.69a1.8,1.8,0,1,1-1.8-1.8A1.81,1.81,0,0,1,696,679.69Z" transform="translate(-566.5 -174.07)"/><path class="cls-4" d="M721.4,679.69a1.8,1.8,0,1,1-1.8-1.8A1.81,1.81,0,0,1,721.4,679.69Z" transform="translate(-566.5 -174.07)"/><path class="cls-4" d="M619.92,705.06a1.8,1.8,0,1,1-1.8-1.8A1.81,1.81,0,0,1,619.92,705.06Z" transform="translate(-566.5 -174.07)"/><path class="cls-4" d="M645.29,705.06a1.8,1.8,0,1,1-1.8-1.8A1.81,1.81,0,0,1,645.29,705.06Z" transform="translate(-566.5 -174.07)"/><path class="cls-4" d="M670.66,705.06a1.8,1.8,0,1,1-1.8-1.8A1.81,1.81,0,0,1,670.66,705.06Z" transform="translate(-566.5 -174.07)"/><path class="cls-4" d="M696,705.06a1.8,1.8,0,1,1-1.8-1.8A1.81,1.81,0,0,1,696,705.06Z" transform="translate(-566.5 -174.07)"/><path class="cls-4" d="M721.4,705.06a1.8,1.8,0,1,1-1.8-1.8A1.81,1.81,0,0,1,721.4,705.06Z" transform="translate(-566.5 -174.07)"/><path class="cls-4" d="M1353.15,537.82A1.8,1.8,0,1,1,1355,536,1.81,1.81,0,0,1,1353.15,537.82Z" transform="translate(-566.5 -174.07)"/><path class="cls-4" d="M1353.15,563.19a1.8,1.8,0,1,1,1.81-1.8A1.81,1.81,0,0,1,1353.15,563.19Z" transform="translate(-566.5 -174.07)"/><path class="cls-4" d="M1353.15,588.56a1.8,1.8,0,1,1,1.81-1.8A1.81,1.81,0,0,1,1353.15,588.56Z" transform="translate(-566.5 -174.07)"/><path class="cls-4" d="M1353.15,613.93a1.8,1.8,0,1,1,1.81-1.8A1.81,1.81,0,0,1,1353.15,613.93Z" transform="translate(-566.5 -174.07)"/><path class="cls-4" d="M1353.15,639.3a1.8,1.8,0,1,1,1.81-1.8A1.81,1.81,0,0,1,1353.15,639.3Z" transform="translate(-566.5 -174.07)"/><path class="cls-4" d="M1327.78,537.82a1.8,1.8,0,1,1,1.81-1.8A1.81,1.81,0,0,1,1327.78,537.82Z" transform="translate(-566.5 -174.07)"/><path class="cls-4" d="M1327.78,563.19a1.8,1.8,0,1,1,1.81-1.8A1.81,1.81,0,0,1,1327.78,563.19Z" transform="translate(-566.5 -174.07)"/><path class="cls-4" d="M1327.78,588.56a1.8,1.8,0,1,1,1.81-1.8A1.81,1.81,0,0,1,1327.78,588.56Z" transform="translate(-566.5 -174.07)"/><path class="cls-4" d="M1327.78,613.93a1.8,1.8,0,1,1,1.81-1.8A1.81,1.81,0,0,1,1327.78,613.93Z" transform="translate(-566.5 -174.07)"/><path class="cls-4" d="M1327.78,639.3a1.8,1.8,0,1,1,1.81-1.8A1.81,1.81,0,0,1,1327.78,639.3Z" transform="translate(-566.5 -174.07)"/><path class="cls-4" d="M1302.41,537.82a1.8,1.8,0,1,1,1.81-1.8A1.81,1.81,0,0,1,1302.41,537.82Z" transform="translate(-566.5 -174.07)"/><path class="cls-4" d="M1302.41,563.19a1.8,1.8,0,1,1,1.81-1.8A1.81,1.81,0,0,1,1302.41,563.19Z" transform="translate(-566.5 -174.07)"/><path class="cls-4" d="M1302.41,588.56a1.8,1.8,0,1,1,1.81-1.8A1.81,1.81,0,0,1,1302.41,588.56Z" transform="translate(-566.5 -174.07)"/><path class="cls-4" d="M1302.41,613.93a1.8,1.8,0,1,1,1.81-1.8A1.81,1.81,0,0,1,1302.41,613.93Z" transform="translate(-566.5 -174.07)"/><path class="cls-4" d="M1302.41,639.3a1.8,1.8,0,1,1,1.81-1.8A1.81,1.81,0,0,1,1302.41,639.3Z" transform="translate(-566.5 -174.07)"/><path class="cls-4" d="M1277.05,537.82a1.8,1.8,0,1,1,1.8-1.8A1.81,1.81,0,0,1,1277.05,537.82Z" transform="translate(-566.5 -174.07)"/><path class="cls-4" d="M1277.05,563.19a1.8,1.8,0,1,1,1.8-1.8A1.81,1.81,0,0,1,1277.05,563.19Z" transform="translate(-566.5 -174.07)"/><path class="cls-4" d="M1277.05,588.56a1.8,1.8,0,1,1,1.8-1.8A1.81,1.81,0,0,1,1277.05,588.56Z" transform="translate(-566.5 -174.07)"/><path class="cls-4" d="M1277.05,613.93a1.8,1.8,0,1,1,1.8-1.8A1.81,1.81,0,0,1,1277.05,613.93Z" transform="translate(-566.5 -174.07)"/><path class="cls-4" d="M1277.05,639.3a1.8,1.8,0,1,1,1.8-1.8A1.81,1.81,0,0,1,1277.05,639.3Z" transform="translate(-566.5 -174.07)"/><path class="cls-4" d="M1251.68,537.82a1.8,1.8,0,1,1,1.8-1.8A1.81,1.81,0,0,1,1251.68,537.82Z" transform="translate(-566.5 -174.07)"/><path class="cls-4" d="M1251.68,563.19a1.8,1.8,0,1,1,1.8-1.8A1.81,1.81,0,0,1,1251.68,563.19Z" transform="translate(-566.5 -174.07)"/><path class="cls-4" d="M1251.68,588.56a1.8,1.8,0,1,1,1.8-1.8A1.81,1.81,0,0,1,1251.68,588.56Z" transform="translate(-566.5 -174.07)"/><path class="cls-4" d="M1251.68,613.93a1.8,1.8,0,1,1,1.8-1.8A1.81,1.81,0,0,1,1251.68,613.93Z" transform="translate(-566.5 -174.07)"/><path class="cls-4" d="M1251.68,639.3a1.8,1.8,0,1,1,1.8-1.8A1.81,1.81,0,0,1,1251.68,639.3Z" transform="translate(-566.5 -174.07)"/><path class="cls-4" d="M1226.31,537.82a1.8,1.8,0,1,1,1.8-1.8A1.81,1.81,0,0,1,1226.31,537.82Z" transform="translate(-566.5 -174.07)"/><path class="cls-4" d="M1226.31,563.19a1.8,1.8,0,1,1,1.8-1.8A1.81,1.81,0,0,1,1226.31,563.19Z" transform="translate(-566.5 -174.07)"/><path class="cls-4" d="M1226.31,588.56a1.8,1.8,0,1,1,1.8-1.8A1.81,1.81,0,0,1,1226.31,588.56Z" transform="translate(-566.5 -174.07)"/><path class="cls-4" d="M1226.31,613.93a1.8,1.8,0,1,1,1.8-1.8A1.81,1.81,0,0,1,1226.31,613.93Z" transform="translate(-566.5 -174.07)"/><path class="cls-4" d="M1226.31,639.3a1.8,1.8,0,1,1,1.8-1.8A1.81,1.81,0,0,1,1226.31,639.3Z" transform="translate(-566.5 -174.07)"/></g><path class="cls-5" d="M1269.2,653H714.12V299.48a18.24,18.24,0,0,1,18.24-18.24H1251a18.24,18.24,0,0,1,18.25,18.24Z" transform="translate(-566.5 -174.07)"/><rect class="cls-6" x="155.87" y="125.99" width="538.57" height="337.04" rx="5.25"/><path class="cls-5" d="M1369.81,839.37s-1.17,10-24.33,10H993.66V843.9Z" transform="translate(-566.5 -174.07)"/><path class="cls-5" d="M617.51,839.37s1.17,10,24.32,10H993.66V843.9Z" transform="translate(-566.5 -174.07)"/><g class="cls-7"><path class="cls-8" d="M1259.61,650.3H723.71a32.14,32.14,0,0,0-4.45.32,26.51,26.51,0,0,0-4,.87,13.55,13.55,0,0,0-3,1.29,4.42,4.42,0,0,0-1.71,1.58L615.85,833.52a3.54,3.54,0,0,0-.34,2.85,4.63,4.63,0,0,0,2,2.35,12.24,12.24,0,0,0,3.93,1.6,24.64,24.64,0,0,0,5.53.58H1356.4a24.71,24.71,0,0,0,5.53-.58,12.18,12.18,0,0,0,3.92-1.6,4.66,4.66,0,0,0,2-2.35,3.58,3.58,0,0,0-.34-2.85l-94.72-179.16a4.38,4.38,0,0,0-1.7-1.58,13.75,13.75,0,0,0-3-1.29,26.51,26.51,0,0,0-4-.87,32.25,32.25,0,0,0-4.45-.32" transform="translate(-566.5 -174.07)"/></g><g class="cls-7"><path class="cls-9" d="M990.19,819.44l0-10,0,10m102.57-70.73H888.06a12.52,12.52,0,0,0-2.17.19,8.9,8.9,0,0,0-1.84.52,4.45,4.45,0,0,0-1.32.76,1.67,1.67,0,0,0-.6.94l-12.25,69.76a1.5,1.5,0,0,0,.28,1.15,3.35,3.35,0,0,0,1.16,1,7.15,7.15,0,0,0,1.85.64,11.49,11.49,0,0,0,2.36.24h229.3a11.49,11.49,0,0,0,2.36-.24A7.15,7.15,0,0,0,1109,823a3.31,3.31,0,0,0,1.15-1,1.5,1.5,0,0,0,.29-1.15l-11.82-69.76a1.65,1.65,0,0,0-.59-.94,4.39,4.39,0,0,0-1.31-.76,8.8,8.8,0,0,0-1.83-.52,12.52,12.52,0,0,0-2.17-.19" transform="translate(-566.5 -174.07)"/><polyline class="cls-9" points="423.72 635.4 423.69 645.37 423.72 635.4"/><path class="cls-9" d="M771,661.36H749.22a3.64,3.64,0,0,0-.48,0l-.42.1a1.61,1.61,0,0,0-.32.14.48.48,0,0,0-.17.18l-2.33,5.13a.17.17,0,0,0,0,.17.42.42,0,0,0,.19.15,1.37,1.37,0,0,0,.34.1,2.89,2.89,0,0,0,.45,0h22.06a3.58,3.58,0,0,0,.48,0,2.47,2.47,0,0,0,.43-.1,1.06,1.06,0,0,0,.32-.15.35.35,0,0,0,.17-.17l2.1-5.13a.17.17,0,0,0,0-.18.54.54,0,0,0-.2-.14,2.14,2.14,0,0,0-.35-.1,3,3,0,0,0-.45,0" transform="translate(-566.5 -174.07)"/><path class="cls-9" d="M800.06,661.36H778.24a3.59,3.59,0,0,0-.47,0,3.26,3.26,0,0,0-.42.1,1.51,1.51,0,0,0-.31.14.38.38,0,0,0-.16.18l-2.06,5.13a.17.17,0,0,0,0,.17.38.38,0,0,0,.19.15,1.46,1.46,0,0,0,.35.1,2.89,2.89,0,0,0,.45,0H797.9a3.73,3.73,0,0,0,.48,0,2.16,2.16,0,0,0,.42-.1,1.06,1.06,0,0,0,.32-.15.42.42,0,0,0,.16-.17l1.82-5.13a.19.19,0,0,0,0-.18.7.7,0,0,0-.21-.14,2.14,2.14,0,0,0-.35-.1,3.19,3.19,0,0,0-.45,0" transform="translate(-566.5 -174.07)"/><path class="cls-9" d="M829.08,661.36H807.27a3.64,3.64,0,0,0-.48,0,3.52,3.52,0,0,0-.41.1,1.4,1.4,0,0,0-.3.14.44.44,0,0,0-.16.18l-1.77,5.13a.17.17,0,0,0,0,.17.44.44,0,0,0,.21.15,1.37,1.37,0,0,0,.34.1,3.15,3.15,0,0,0,.46,0h22.06a3.89,3.89,0,0,0,.49,0,2.24,2.24,0,0,0,.41-.1.93.93,0,0,0,.3-.15.34.34,0,0,0,.15-.17l1.55-5.13a.2.2,0,0,0,0-.18.64.64,0,0,0-.22-.14,1.88,1.88,0,0,0-.35-.1,3.23,3.23,0,0,0-.46,0" transform="translate(-566.5 -174.07)"/><path class="cls-9" d="M858.1,661.36H836.29a3.38,3.38,0,0,0-.47,0,3.52,3.52,0,0,0-.41.1,1.12,1.12,0,0,0-.29.14.36.36,0,0,0-.15.18l-1.5,5.13a.18.18,0,0,0,0,.17.53.53,0,0,0,.22.15,1.34,1.34,0,0,0,.35.1,3.15,3.15,0,0,0,.46,0H856.6a3.58,3.58,0,0,0,.48,0,2.24,2.24,0,0,0,.41-.1,1.05,1.05,0,0,0,.3-.15.37.37,0,0,0,.14-.17l1.26-5.13a.18.18,0,0,0-.05-.18.56.56,0,0,0-.22-.14,1.88,1.88,0,0,0-.35-.1,3.38,3.38,0,0,0-.47,0" transform="translate(-566.5 -174.07)"/><path class="cls-9" d="M887.14,661.36H865.33a3.64,3.64,0,0,0-.48,0,3.52,3.52,0,0,0-.41.1,1.57,1.57,0,0,0-.29.14.31.31,0,0,0-.13.18l-1.22,5.13a.16.16,0,0,0,.05.17.53.53,0,0,0,.22.15,1.55,1.55,0,0,0,.36.1,3.3,3.3,0,0,0,.47,0H886a3.58,3.58,0,0,0,.48,0,2.34,2.34,0,0,0,.4-.1.92.92,0,0,0,.28-.15.29.29,0,0,0,.13-.17l1-5.13a.21.21,0,0,0-.06-.18.64.64,0,0,0-.22-.14,2.28,2.28,0,0,0-.36-.1,3.23,3.23,0,0,0-.46,0" transform="translate(-566.5 -174.07)"/><path class="cls-9" d="M916.17,661.36H894.35a3.64,3.64,0,0,0-.48,0l-.4.1a1.22,1.22,0,0,0-.28.14.29.29,0,0,0-.12.18l-1,5.13a.19.19,0,0,0,.06.17.57.57,0,0,0,.23.15,1.81,1.81,0,0,0,.37.1,3.3,3.3,0,0,0,.47,0h22.06a3.3,3.3,0,0,0,.47,0,2.12,2.12,0,0,0,.4-.1.92.92,0,0,0,.28-.15.25.25,0,0,0,.11-.17l.72-5.13a.22.22,0,0,0-.07-.18.7.7,0,0,0-.23-.14,2.43,2.43,0,0,0-.37-.1,3.09,3.09,0,0,0-.45,0" transform="translate(-566.5 -174.07)"/><path class="cls-9" d="M945.19,661.36H923.37a3.33,3.33,0,0,0-.46,0,2.91,2.91,0,0,0-.4.1,1.22,1.22,0,0,0-.28.14.29.29,0,0,0-.12.18l-.66,5.13a.18.18,0,0,0,.07.17.62.62,0,0,0,.24.15,1.74,1.74,0,0,0,.38.1,3.15,3.15,0,0,0,.46,0h22.06a3.3,3.3,0,0,0,.47,0,1.84,1.84,0,0,0,.39-.1.87.87,0,0,0,.27-.15.3.3,0,0,0,.11-.17l.44-5.13a.27.27,0,0,0-.08-.18.89.89,0,0,0-.24-.14,2.8,2.8,0,0,0-.37-.1,3.33,3.33,0,0,0-.46,0" transform="translate(-566.5 -174.07)"/><path class="cls-9" d="M974.21,661.36H952.4a3.48,3.48,0,0,0-.47,0,3.15,3.15,0,0,0-.39.1,1.13,1.13,0,0,0-.27.14.32.32,0,0,0-.11.18l-.39,5.13a.19.19,0,0,0,.08.17.76.76,0,0,0,.25.15,1.91,1.91,0,0,0,.38.1,3.43,3.43,0,0,0,.47,0H974a3.43,3.43,0,0,0,.47,0,1.91,1.91,0,0,0,.38-.1.71.71,0,0,0,.26-.15.21.21,0,0,0,.1-.17l.16-5.13a.2.2,0,0,0-.08-.18,1,1,0,0,0-.25-.14,2.58,2.58,0,0,0-.38-.1,3.23,3.23,0,0,0-.46,0" transform="translate(-566.5 -174.07)"/><path class="cls-9" d="M1003.24,661.36H981.42a3.33,3.33,0,0,0-.46,0,2.74,2.74,0,0,0-.39.1.89.89,0,0,0-.26.14.26.26,0,0,0-.1.18l-.12,5.13a.24.24,0,0,0,.1.17.71.71,0,0,0,.26.15,1.6,1.6,0,0,0,.38.1,3.3,3.3,0,0,0,.47,0h22.06a3.57,3.57,0,0,0,.47,0,1.64,1.64,0,0,0,.37-.1.71.71,0,0,0,.26-.15.22.22,0,0,0,.09-.17l-.12-5.13a.22.22,0,0,0-.1-.18.82.82,0,0,0-.25-.14,3,3,0,0,0-.38-.1,3.33,3.33,0,0,0-.46,0" transform="translate(-566.5 -174.07)"/><path class="cls-9" d="M1032.26,661.36h-21.82a3.33,3.33,0,0,0-.46,0,2.8,2.8,0,0,0-.37.1.82.82,0,0,0-.25.14.24.24,0,0,0-.09.18l.16,5.13a.28.28,0,0,0,.1.17.93.93,0,0,0,.26.15,1.84,1.84,0,0,0,.39.1,3.3,3.3,0,0,0,.47,0h22.06a3.28,3.28,0,0,0,.46,0,1.91,1.91,0,0,0,.38-.1.7.7,0,0,0,.24-.15.19.19,0,0,0,.08-.17l-.39-5.13a.27.27,0,0,0-.11-.18.89.89,0,0,0-.26-.14,2.74,2.74,0,0,0-.39-.1,3.33,3.33,0,0,0-.46,0" transform="translate(-566.5 -174.07)"/><path class="cls-9" d="M1061.28,661.36h-21.81a3.23,3.23,0,0,0-.46,0,2.43,2.43,0,0,0-.37.1.76.76,0,0,0-.24.14.23.23,0,0,0-.08.18l.44,5.13a.22.22,0,0,0,.11.17.68.68,0,0,0,.27.15,1.84,1.84,0,0,0,.39.1,3.3,3.3,0,0,0,.47,0h22.06a3.28,3.28,0,0,0,.46,0,1.91,1.91,0,0,0,.38-.1.7.7,0,0,0,.24-.15.2.2,0,0,0,.07-.17l-.67-5.13a.29.29,0,0,0-.12-.18,1,1,0,0,0-.27-.14l-.4-.1a3.38,3.38,0,0,0-.47,0" transform="translate(-566.5 -174.07)"/><path class="cls-9" d="M1090.31,661.36h-21.82a3.33,3.33,0,0,0-.46,0,2.28,2.28,0,0,0-.36.1.7.7,0,0,0-.23.14.19.19,0,0,0-.07.18l.71,5.13a.27.27,0,0,0,.12.17.82.82,0,0,0,.28.15,2,2,0,0,0,.39.1,3.58,3.58,0,0,0,.48,0h22.06a3.28,3.28,0,0,0,.46,0,1.64,1.64,0,0,0,.37-.1.57.57,0,0,0,.23-.15.2.2,0,0,0,.07-.17l-1-5.13a.31.31,0,0,0-.13-.18,1.22,1.22,0,0,0-.28-.14l-.4-.1a3.59,3.59,0,0,0-.47,0" transform="translate(-566.5 -174.07)"/><path class="cls-9" d="M1119.33,661.36h-21.82a3.19,3.19,0,0,0-.45,0,2.28,2.28,0,0,0-.36.1.7.7,0,0,0-.23.14.2.2,0,0,0,0,.18l1,5.13a.26.26,0,0,0,.13.17.82.82,0,0,0,.28.15,2.12,2.12,0,0,0,.4.1,3.57,3.57,0,0,0,.47,0h22.07a3.28,3.28,0,0,0,.46,0,1.55,1.55,0,0,0,.36-.1.57.57,0,0,0,.23-.15.16.16,0,0,0,0-.17l-1.22-5.13a.39.39,0,0,0-.14-.18,1.12,1.12,0,0,0-.29-.14,3.52,3.52,0,0,0-.41-.1,3.59,3.59,0,0,0-.47,0" transform="translate(-566.5 -174.07)"/><path class="cls-9" d="M1148.35,661.36h-21.81a3.23,3.23,0,0,0-.46,0,2.47,2.47,0,0,0-.35.1.64.64,0,0,0-.22.14.24.24,0,0,0,0,.18l1.27,5.13a.37.37,0,0,0,.14.17.87.87,0,0,0,.29.15,2.24,2.24,0,0,0,.41.1,3.57,3.57,0,0,0,.47,0h22.06a3,3,0,0,0,.46,0,1.55,1.55,0,0,0,.36-.1.53.53,0,0,0,.22-.15.18.18,0,0,0,0-.17l-1.5-5.13a.36.36,0,0,0-.15-.18,1.4,1.4,0,0,0-.3-.14,3.52,3.52,0,0,0-.41-.1,3.64,3.64,0,0,0-.48,0" transform="translate(-566.5 -174.07)"/><path class="cls-9" d="M1177.38,661.36h-21.82a3.09,3.09,0,0,0-.45,0,2.14,2.14,0,0,0-.35.1.59.59,0,0,0-.21.14.2.2,0,0,0,0,.18l1.55,5.13a.37.37,0,0,0,.14.17,1.05,1.05,0,0,0,.3.15,2.46,2.46,0,0,0,.41.1,3.88,3.88,0,0,0,.48,0h22.06a3.3,3.3,0,0,0,.47,0,1.46,1.46,0,0,0,.35-.1.49.49,0,0,0,.21-.15.17.17,0,0,0,0-.17l-1.78-5.13a.36.36,0,0,0-.15-.18,1.29,1.29,0,0,0-.31-.14,3.52,3.52,0,0,0-.41-.1,3.75,3.75,0,0,0-.48,0" transform="translate(-566.5 -174.07)"/><path class="cls-9" d="M1206.42,661.36H1184.6a3.23,3.23,0,0,0-.46,0,2.14,2.14,0,0,0-.35.1.54.54,0,0,0-.2.14.19.19,0,0,0,0,.18l1.82,5.13a.36.36,0,0,0,.16.17,1,1,0,0,0,.31.15,2.16,2.16,0,0,0,.42.1,3.74,3.74,0,0,0,.49,0h22.06a2.89,2.89,0,0,0,.45,0,1.25,1.25,0,0,0,.34-.1.46.46,0,0,0,.2-.15.15.15,0,0,0,0-.17l-2-5.13a.38.38,0,0,0-.16-.18,1.51,1.51,0,0,0-.31-.14l-.42-.1a3.59,3.59,0,0,0-.47,0" transform="translate(-566.5 -174.07)"/><path class="cls-9" d="M1235.44,661.36h-21.82a3.19,3.19,0,0,0-.45,0,2,2,0,0,0-.34.1.54.54,0,0,0-.2.14.17.17,0,0,0,0,.18l2.1,5.13a.36.36,0,0,0,.16.17,1.26,1.26,0,0,0,.33.15,2.35,2.35,0,0,0,.42.1,3.89,3.89,0,0,0,.49,0h22.06a3,3,0,0,0,.45,0,1.37,1.37,0,0,0,.34-.1.49.49,0,0,0,.19-.15.17.17,0,0,0,0-.17l-2.33-5.13a.48.48,0,0,0-.17-.18,1.92,1.92,0,0,0-.32-.14l-.42-.1-.48,0" transform="translate(-566.5 -174.07)"/><path class="cls-9" d="M763.66,669.35H745.78a3.21,3.21,0,0,0-.55,0,2.21,2.21,0,0,0-.49.11,1.49,1.49,0,0,0-.38.17.48.48,0,0,0-.2.2l-4,8.78a.2.2,0,0,0,0,.21.58.58,0,0,0,.22.17,1.8,1.8,0,0,0,.39.12,2.89,2.89,0,0,0,.53.05h18.21a3.43,3.43,0,0,0,.56-.05,3.19,3.19,0,0,0,.51-.12,2,2,0,0,0,.38-.17.55.55,0,0,0,.2-.21l3.65-8.78a.2.2,0,0,0,0-.2.57.57,0,0,0-.24-.17,1.29,1.29,0,0,0-.39-.11,2.89,2.89,0,0,0-.53,0" transform="translate(-566.5 -174.07)"/><path class="cls-9" d="M794.34,669.35H772.67a4,4,0,0,0-.61,0,3.61,3.61,0,0,0-.54.12,1.87,1.87,0,0,0-.4.19.48.48,0,0,0-.21.22l-3.52,8.68a.24.24,0,0,0,0,.23.63.63,0,0,0,.25.19,2,2,0,0,0,.45.13,3.39,3.39,0,0,0,.58.05h22.06a4.23,4.23,0,0,0,.63-.05,3.89,3.89,0,0,0,.54-.13,1.66,1.66,0,0,0,.4-.19.56.56,0,0,0,.21-.23l3.12-8.68a.22.22,0,0,0,0-.22.7.7,0,0,0-.26-.19,2.13,2.13,0,0,0-.44-.12,3.48,3.48,0,0,0-.58,0" transform="translate(-566.5 -174.07)"/><path class="cls-9" d="M824,669.35H802.32a4,4,0,0,0-.61,0,3.22,3.22,0,0,0-.53.12,1.77,1.77,0,0,0-.39.19.51.51,0,0,0-.2.22l-3.05,8.68a.27.27,0,0,0,0,.23.72.72,0,0,0,.27.19,2,2,0,0,0,.45.13,3.51,3.51,0,0,0,.59.05H821a4.07,4.07,0,0,0,.61-.05,3.74,3.74,0,0,0,.53-.13,1.5,1.5,0,0,0,.38-.19.53.53,0,0,0,.2-.23l2.65-8.68a.25.25,0,0,0-.05-.22.85.85,0,0,0-.27-.19,2.13,2.13,0,0,0-.44-.12,3.48,3.48,0,0,0-.58,0" transform="translate(-566.5 -174.07)"/><path class="cls-9" d="M853.65,669.35H832a4,4,0,0,0-.61,0,3.33,3.33,0,0,0-.52.12,1.49,1.49,0,0,0-.38.19.43.43,0,0,0-.19.22l-2.57,8.68a.22.22,0,0,0,0,.23.69.69,0,0,0,.28.19,2,2,0,0,0,.45.13,3.61,3.61,0,0,0,.59.05h22.08a4.1,4.1,0,0,0,.62-.05,3.74,3.74,0,0,0,.53-.13,1.5,1.5,0,0,0,.38-.19.47.47,0,0,0,.18-.23l2.18-8.68a.24.24,0,0,0-.07-.22.8.8,0,0,0-.28-.19,2.24,2.24,0,0,0-.45-.12,3.61,3.61,0,0,0-.59,0" transform="translate(-566.5 -174.07)"/><path class="cls-9" d="M883.3,669.35H861.62a3.83,3.83,0,0,0-.6,0,3.19,3.19,0,0,0-.51.12,1.58,1.58,0,0,0-.37.19.43.43,0,0,0-.17.22l-2.1,8.68a.25.25,0,0,0,.06.23.73.73,0,0,0,.29.19,2.21,2.21,0,0,0,.45.13,3.61,3.61,0,0,0,.59.05h22.08a4,4,0,0,0,.61-.05,3.29,3.29,0,0,0,.52-.13,1.28,1.28,0,0,0,.37-.19.45.45,0,0,0,.17-.23l1.71-8.68a.25.25,0,0,0-.08-.22.86.86,0,0,0-.29-.19,2.35,2.35,0,0,0-.46-.12,3.61,3.61,0,0,0-.59,0" transform="translate(-566.5 -174.07)"/><path class="cls-9" d="M913,669.35H891.27a3.83,3.83,0,0,0-.6,0,3.33,3.33,0,0,0-.5.12,1.49,1.49,0,0,0-.36.19.36.36,0,0,0-.16.22L888,678.61a.24.24,0,0,0,.08.23.73.73,0,0,0,.29.19,2.43,2.43,0,0,0,.47.13,3.39,3.39,0,0,0,.58.05h22.08a3.86,3.86,0,0,0,.61-.05,3.29,3.29,0,0,0,.52-.13,1.35,1.35,0,0,0,.36-.19.36.36,0,0,0,.15-.23l1.24-8.68a.26.26,0,0,0-.09-.22,1,1,0,0,0-.3-.19,2.47,2.47,0,0,0-.47-.12,3.61,3.61,0,0,0-.59,0" transform="translate(-566.5 -174.07)"/><path class="cls-9" d="M942.6,669.35H920.93a3.83,3.83,0,0,0-.6,0,3.33,3.33,0,0,0-.5.12,1.62,1.62,0,0,0-.35.19.34.34,0,0,0-.15.22l-1.16,8.68a.27.27,0,0,0,.09.23.91.91,0,0,0,.31.19,2.35,2.35,0,0,0,.48.13,3.64,3.64,0,0,0,.6.05h22.06a4,4,0,0,0,.61-.05,2.78,2.78,0,0,0,.5-.13,1,1,0,0,0,.35-.19.31.31,0,0,0,.14-.23l.77-8.68a.27.27,0,0,0-.1-.22,1.1,1.1,0,0,0-.31-.19,2.58,2.58,0,0,0-.48-.12,3.61,3.61,0,0,0-.59,0" transform="translate(-566.5 -174.07)"/><path class="cls-9" d="M972.25,669.35H950.58a3.61,3.61,0,0,0-.59,0,2.83,2.83,0,0,0-.5.12,1.33,1.33,0,0,0-.34.19.36.36,0,0,0-.14.22l-.69,8.68a.3.3,0,0,0,.11.23.91.91,0,0,0,.31.19,2.89,2.89,0,0,0,.49.13,3.73,3.73,0,0,0,.6.05h22.06a3.86,3.86,0,0,0,.61-.05,3,3,0,0,0,.5-.13,1.08,1.08,0,0,0,.34-.19.36.36,0,0,0,.13-.23l.29-8.68a.31.31,0,0,0-.11-.22,1.35,1.35,0,0,0-.32-.19,2.8,2.8,0,0,0-.48-.12,3.73,3.73,0,0,0-.6,0" transform="translate(-566.5 -174.07)"/><path class="cls-9" d="M1001.9,669.35H980.23a3.61,3.61,0,0,0-.59,0,2.7,2.7,0,0,0-.49.12,1.25,1.25,0,0,0-.33.19.31.31,0,0,0-.13.22l-.21,8.68a.3.3,0,0,0,.11.23,1,1,0,0,0,.33.19,2.89,2.89,0,0,0,.49.13,3.86,3.86,0,0,0,.61.05h22.06a3.73,3.73,0,0,0,.6-.05,2.66,2.66,0,0,0,.49-.13.93.93,0,0,0,.33-.19.31.31,0,0,0,.12-.23l-.18-8.68a.29.29,0,0,0-.12-.22,1.25,1.25,0,0,0-.33-.19,2.93,2.93,0,0,0-.49-.12,3.73,3.73,0,0,0-.6,0" transform="translate(-566.5 -174.07)"/><path class="cls-9" d="M1031.57,669.35h-21.69a3.61,3.61,0,0,0-.59,0,2.8,2.8,0,0,0-.48.12,1,1,0,0,0-.32.19.29.29,0,0,0-.12.22l.26,8.68a.32.32,0,0,0,.13.23,1,1,0,0,0,.34.19,2.89,2.89,0,0,0,.49.13,4,4,0,0,0,.61.05h22.08a3.61,3.61,0,0,0,.59-.05,2.54,2.54,0,0,0,.48-.13,1,1,0,0,0,.32-.19.28.28,0,0,0,.1-.23l-.65-8.68a.31.31,0,0,0-.13-.22,1.33,1.33,0,0,0-.34-.19,2.93,2.93,0,0,0-.49-.12,3.61,3.61,0,0,0-.59,0" transform="translate(-566.5 -174.07)"/><path class="cls-9" d="M1061.22,669.35h-21.69a3.61,3.61,0,0,0-.59,0,2.47,2.47,0,0,0-.47.12,1,1,0,0,0-.31.19.28.28,0,0,0-.11.22l.73,8.68a.38.38,0,0,0,.14.23,1.28,1.28,0,0,0,.35.19,3.15,3.15,0,0,0,.51.13,3.86,3.86,0,0,0,.61.05h22.07a3.61,3.61,0,0,0,.59-.05,2.77,2.77,0,0,0,.48-.13.86.86,0,0,0,.3-.19.25.25,0,0,0,.09-.23l-1.11-8.68a.38.38,0,0,0-.15-.22,1.62,1.62,0,0,0-.35-.19,3.06,3.06,0,0,0-.5-.12,3.61,3.61,0,0,0-.59,0" transform="translate(-566.5 -174.07)"/><path class="cls-9" d="M1090.87,669.35h-21.69a3.48,3.48,0,0,0-.58,0,2.18,2.18,0,0,0-.46.12,1,1,0,0,0-.3.19.26.26,0,0,0-.09.22l1.2,8.68a.36.36,0,0,0,.15.23,1.21,1.21,0,0,0,.36.19,2.78,2.78,0,0,0,.5.13,4,4,0,0,0,.61.05h22.08a3.61,3.61,0,0,0,.59-.05,2.43,2.43,0,0,0,.47-.13.73.73,0,0,0,.29-.19.3.3,0,0,0,.08-.23l-1.59-8.68a.4.4,0,0,0-.16-.22,1.49,1.49,0,0,0-.36-.19,2.83,2.83,0,0,0-.5-.12,3.83,3.83,0,0,0-.6,0" transform="translate(-566.5 -174.07)"/><path class="cls-9" d="M1120.52,669.35h-21.69a3.36,3.36,0,0,0-.57,0,2.35,2.35,0,0,0-.46.12.86.86,0,0,0-.29.19.28.28,0,0,0-.08.22l1.67,8.68a.45.45,0,0,0,.17.23,1.28,1.28,0,0,0,.37.19,3.15,3.15,0,0,0,.51.13,4,4,0,0,0,.61.05h22.07a3.64,3.64,0,0,0,.6-.05,2.31,2.31,0,0,0,.46-.13.73.73,0,0,0,.29-.19.26.26,0,0,0,.07-.23l-2.07-8.68a.38.38,0,0,0-.17-.22,1.58,1.58,0,0,0-.37-.19,3.19,3.19,0,0,0-.51-.12,4,4,0,0,0-.61,0" transform="translate(-566.5 -174.07)"/><path class="cls-9" d="M1150.17,669.35H1128.5a3.39,3.39,0,0,0-.58,0,2.35,2.35,0,0,0-.46.12.91.91,0,0,0-.28.19.23.23,0,0,0-.06.22l2.13,8.68a.54.54,0,0,0,.18.23,1.5,1.5,0,0,0,.38.19,3.74,3.74,0,0,0,.53.13,4,4,0,0,0,.62.05H1153a3.61,3.61,0,0,0,.59-.05,2.31,2.31,0,0,0,.46-.13.65.65,0,0,0,.27-.19.25.25,0,0,0,.06-.23l-2.53-8.68a.48.48,0,0,0-.19-.22,1.92,1.92,0,0,0-.38-.19,3.33,3.33,0,0,0-.52-.12,4,4,0,0,0-.61,0" transform="translate(-566.5 -174.07)"/><path class="cls-9" d="M1179.82,669.35h-21.67a3.39,3.39,0,0,0-.58,0,2.07,2.07,0,0,0-.45.12.85.85,0,0,0-.27.19.21.21,0,0,0,0,.22l2.61,8.68a.44.44,0,0,0,.19.23,1.42,1.42,0,0,0,.39.19,3.74,3.74,0,0,0,.53.13,4.21,4.21,0,0,0,.62.05h22.06a3.42,3.42,0,0,0,.59-.05,2,2,0,0,0,.45-.13.65.65,0,0,0,.27-.19.24.24,0,0,0,0-.23l-3-8.68a.51.51,0,0,0-.2-.22,2,2,0,0,0-.39-.19,3.77,3.77,0,0,0-.53-.12,4,4,0,0,0-.61,0" transform="translate(-566.5 -174.07)"/><path class="cls-9" d="M1238.75,669.35h-51a3.27,3.27,0,0,0-.57,0,1.87,1.87,0,0,0-.43.12.7.7,0,0,0-.26.19.2.2,0,0,0,0,.22l3.08,8.68a.53.53,0,0,0,.2.23,1.66,1.66,0,0,0,.4.19,3.57,3.57,0,0,0,.54.13,4,4,0,0,0,.61.05h51.91a3.39,3.39,0,0,0,.58-.05,2,2,0,0,0,.43-.13.53.53,0,0,0,.24-.19.21.21,0,0,0,0-.23l-3.94-8.68a.58.58,0,0,0-.22-.22,2.26,2.26,0,0,0-.41-.19,3.61,3.61,0,0,0-.54-.12,3.94,3.94,0,0,0-.6,0" transform="translate(-566.5 -174.07)"/><path class="cls-9" d="M774.31,682.06H740a3.55,3.55,0,0,0-.57.05,2.45,2.45,0,0,0-.5.11,1.49,1.49,0,0,0-.38.18.48.48,0,0,0-.21.22l-4.18,9.19a.24.24,0,0,0,0,.22.54.54,0,0,0,.23.18,1.73,1.73,0,0,0,.4.12,3,3,0,0,0,.54,0h34.9a3.6,3.6,0,0,0,.58,0,3.19,3.19,0,0,0,.51-.12,1.42,1.42,0,0,0,.39-.18.57.57,0,0,0,.2-.22l3.56-9.19a.22.22,0,0,0,0-.22.52.52,0,0,0-.24-.18,1.43,1.43,0,0,0-.41-.11,2.89,2.89,0,0,0-.53-.05" transform="translate(-566.5 -174.07)"/><path class="cls-9" d="M1244.6,682.06h-34.25a2.92,2.92,0,0,0-.54.05,1.43,1.43,0,0,0-.41.11.58.58,0,0,0-.24.18.25.25,0,0,0,0,.22l3.57,9.19a.57.57,0,0,0,.2.22,1.49,1.49,0,0,0,.38.18,3.42,3.42,0,0,0,1.1.16h34.88a3.09,3.09,0,0,0,.55,0,1.83,1.83,0,0,0,.41-.12.51.51,0,0,0,.22-.18.22.22,0,0,0,0-.22l-4.18-9.19a.54.54,0,0,0-.21-.22,1.49,1.49,0,0,0-.38-.18,2.55,2.55,0,0,0-.51-.11,3.68,3.68,0,0,0-.58-.05" transform="translate(-566.5 -174.07)"/><path class="cls-9" d="M805.08,682.06H782.89a4.23,4.23,0,0,0-.63.05,2.85,2.85,0,0,0-.54.13,1.74,1.74,0,0,0-.41.19.57.57,0,0,0-.21.24l-3.43,9.08a.23.23,0,0,0,0,.24.6.6,0,0,0,.27.2,2,2,0,0,0,.45.14,3.7,3.7,0,0,0,.6,0h22.6a4.26,4.26,0,0,0,.63,0,4,4,0,0,0,.55-.14,1.49,1.49,0,0,0,.4-.2.47.47,0,0,0,.21-.24l3-9.08a.27.27,0,0,0,0-.24.65.65,0,0,0-.27-.19,1.61,1.61,0,0,0-.45-.13,3.39,3.39,0,0,0-.58-.05" transform="translate(-566.5 -174.07)"/><path class="cls-9" d="M835.42,682.06H813.23a4,4,0,0,0-.62.05,2.67,2.67,0,0,0-.54.13,1.49,1.49,0,0,0-.4.19.61.61,0,0,0-.2.24l-2.94,9.08a.26.26,0,0,0,.05.24.7.7,0,0,0,.28.2,2.1,2.1,0,0,0,.46.14,3.7,3.7,0,0,0,.6,0h22.6a4.26,4.26,0,0,0,.63,0,3.86,3.86,0,0,0,.54-.14,1.58,1.58,0,0,0,.39-.2.43.43,0,0,0,.19-.24l2.53-9.08a.28.28,0,0,0-.06-.24.69.69,0,0,0-.28-.19,1.71,1.71,0,0,0-.45-.13,3.61,3.61,0,0,0-.59-.05" transform="translate(-566.5 -174.07)"/><path class="cls-9" d="M865.76,682.06H843.57a4,4,0,0,0-.61.05,2.74,2.74,0,0,0-.53.13,1.5,1.5,0,0,0-.38.19.5.5,0,0,0-.19.24l-2.44,9.08a.24.24,0,0,0,.06.24.7.7,0,0,0,.28.2,2.39,2.39,0,0,0,.47.14,3.65,3.65,0,0,0,.59,0h22.6a4.4,4.4,0,0,0,.64,0,3.39,3.39,0,0,0,.53-.14,1.42,1.42,0,0,0,.39-.2.45.45,0,0,0,.18-.24l2-9.08a.28.28,0,0,0-.07-.24.73.73,0,0,0-.29-.19,1.88,1.88,0,0,0-.47-.13,3.64,3.64,0,0,0-.6-.05" transform="translate(-566.5 -174.07)"/><path class="cls-9" d="M896.1,682.06H873.91a4,4,0,0,0-.61.05,2.47,2.47,0,0,0-.52.13,1.28,1.28,0,0,0-.37.19.47.47,0,0,0-.18.24l-2,9.08a.25.25,0,0,0,.08.24.74.74,0,0,0,.29.2,2.39,2.39,0,0,0,.47.14,3.86,3.86,0,0,0,.6,0h22.6a4.17,4.17,0,0,0,.63,0,3.11,3.11,0,0,0,.53-.14,1.35,1.35,0,0,0,.38-.2.37.37,0,0,0,.16-.24l1.54-9.08a.26.26,0,0,0-.08-.24.86.86,0,0,0-.3-.19,2,2,0,0,0-.48-.13,3.64,3.64,0,0,0-.6-.05" transform="translate(-566.5 -174.07)"/><path class="cls-9" d="M926.44,682.06H904.27a4,4,0,0,0-.62.05,2.47,2.47,0,0,0-.52.13,1.21,1.21,0,0,0-.36.19.42.42,0,0,0-.16.24l-1.46,9.08a.28.28,0,0,0,.09.24.76.76,0,0,0,.31.2,2.31,2.31,0,0,0,.48.14,3.91,3.91,0,0,0,.61,0h22.59a4,4,0,0,0,.62,0,3,3,0,0,0,.52-.14,1.28,1.28,0,0,0,.37-.2.35.35,0,0,0,.15-.24l1.05-9.08a.36.36,0,0,0-.1-.24.91.91,0,0,0-.31-.19,2.09,2.09,0,0,0-.48-.13,3.86,3.86,0,0,0-.61-.05" transform="translate(-566.5 -174.07)"/><path class="cls-9" d="M956.78,682.06H934.61a4.1,4.1,0,0,0-.62.05,2.37,2.37,0,0,0-.51.13,1.28,1.28,0,0,0-.35.19.4.4,0,0,0-.15.24l-1,9.08a.26.26,0,0,0,.1.24.88.88,0,0,0,.32.2,2.42,2.42,0,0,0,.49.14,3.82,3.82,0,0,0,.61,0h22.59a4,4,0,0,0,.62,0,2.86,2.86,0,0,0,.51-.14,1.21,1.21,0,0,0,.36-.2.38.38,0,0,0,.14-.24l.55-9.08a.37.37,0,0,0-.11-.24.87.87,0,0,0-.32-.19,2.19,2.19,0,0,0-.49-.13,3.86,3.86,0,0,0-.61-.05" transform="translate(-566.5 -174.07)"/><path class="cls-9" d="M987.12,682.06H965a3.86,3.86,0,0,0-.61.05,2.37,2.37,0,0,0-.51.13,1.08,1.08,0,0,0-.34.19.43.43,0,0,0-.14.24l-.47,9.08a.31.31,0,0,0,.12.24.93.93,0,0,0,.33.2,2.74,2.74,0,0,0,.5.14,3.82,3.82,0,0,0,.61,0H987a4,4,0,0,0,.62,0,2.74,2.74,0,0,0,.5-.14,1,1,0,0,0,.35-.2.31.31,0,0,0,.12-.24l.06-9.08a.35.35,0,0,0-.12-.24,1,1,0,0,0-.33-.19,2.14,2.14,0,0,0-.5-.13,3.86,3.86,0,0,0-.61-.05" transform="translate(-566.5 -174.07)"/><path class="cls-9" d="M1017.48,682.06H995.29a3.86,3.86,0,0,0-.61.05,2.28,2.28,0,0,0-.5.13,1,1,0,0,0-.33.19.35.35,0,0,0-.12.24l0,9.08a.33.33,0,0,0,.13.24,1,1,0,0,0,.34.2,2.74,2.74,0,0,0,.5.14,4,4,0,0,0,.62,0h22.6a3.82,3.82,0,0,0,.61,0,2.74,2.74,0,0,0,.5-.14,1,1,0,0,0,.33-.2.34.34,0,0,0,.11-.24l-.43-9.08a.43.43,0,0,0-.14-.24,1.08,1.08,0,0,0-.34-.19,2.14,2.14,0,0,0-.5-.13,3.83,3.83,0,0,0-.6-.05" transform="translate(-566.5 -174.07)"/><path class="cls-9" d="M1047.82,682.06h-22.19a3.86,3.86,0,0,0-.61.05,2.19,2.19,0,0,0-.49.13,1.08,1.08,0,0,0-.32.19.37.37,0,0,0-.11.24l.52,9.08a.31.31,0,0,0,.14.24,1,1,0,0,0,.35.2,2.86,2.86,0,0,0,.51.14,4,4,0,0,0,.62,0h22.6a3.91,3.91,0,0,0,.61,0,2.86,2.86,0,0,0,.49-.14,1.1,1.1,0,0,0,.32-.2.33.33,0,0,0,.1-.24l-.93-9.08a.4.4,0,0,0-.15-.24,1,1,0,0,0-.35-.19,2.37,2.37,0,0,0-.51-.13,3.73,3.73,0,0,0-.6-.05" transform="translate(-566.5 -174.07)"/><path class="cls-9" d="M1078.16,682.06H1056a3.64,3.64,0,0,0-.6.05,2.09,2.09,0,0,0-.48.13.91.91,0,0,0-.31.19.34.34,0,0,0-.09.24l1,9.08a.35.35,0,0,0,.15.24,1.21,1.21,0,0,0,.36.2,2.86,2.86,0,0,0,.51.14,4.17,4.17,0,0,0,.63,0h22.59a3.91,3.91,0,0,0,.61,0,2.74,2.74,0,0,0,.48-.14.92.92,0,0,0,.31-.2.27.27,0,0,0,.08-.24l-1.42-9.08a.42.42,0,0,0-.16-.24,1.21,1.21,0,0,0-.36-.19,2.37,2.37,0,0,0-.51-.13,4,4,0,0,0-.61-.05" transform="translate(-566.5 -174.07)"/><path class="cls-9" d="M1108.5,682.06h-22.19a3.61,3.61,0,0,0-.59.05,1.88,1.88,0,0,0-.47.13.78.78,0,0,0-.3.19.3.3,0,0,0-.09.24l1.51,9.08a.37.37,0,0,0,.16.24,1.28,1.28,0,0,0,.37.2,3.39,3.39,0,0,0,.53.14,4,4,0,0,0,.62,0h22.6a3.91,3.91,0,0,0,.61,0,2.39,2.39,0,0,0,.47-.14.71.71,0,0,0,.3-.2.27.27,0,0,0,.08-.24l-1.92-9.08a.51.51,0,0,0-.17-.24,1.35,1.35,0,0,0-.38-.19,2.47,2.47,0,0,0-.52-.13,4,4,0,0,0-.62-.05" transform="translate(-566.5 -174.07)"/><path class="cls-9" d="M1138.84,682.06h-22.17a3.64,3.64,0,0,0-.6.05,1.88,1.88,0,0,0-.47.13.73.73,0,0,0-.29.19.28.28,0,0,0-.07.24l2,9.08a.45.45,0,0,0,.18.24,1.42,1.42,0,0,0,.39.2,3.11,3.11,0,0,0,.53.14,4.26,4.26,0,0,0,.63,0h22.59a3.7,3.7,0,0,0,.6,0,2.2,2.2,0,0,0,.47-.14.74.74,0,0,0,.29-.2.24.24,0,0,0,.06-.24l-2.41-9.08a.47.47,0,0,0-.18-.24,1.42,1.42,0,0,0-.39-.19,2.42,2.42,0,0,0-.53-.13,4,4,0,0,0-.62-.05" transform="translate(-566.5 -174.07)"/><path class="cls-9" d="M1169.18,682.06H1147a3.64,3.64,0,0,0-.6.05,1.79,1.79,0,0,0-.46.13.69.69,0,0,0-.28.19.28.28,0,0,0-.06.24l2.49,9.08a.43.43,0,0,0,.19.24,1.49,1.49,0,0,0,.4.2,3.53,3.53,0,0,0,.54.14,4.26,4.26,0,0,0,.63,0h22.59a3.7,3.7,0,0,0,.6,0,2.1,2.1,0,0,0,.46-.14.63.63,0,0,0,.28-.2.23.23,0,0,0,0-.24l-2.9-9.08a.61.61,0,0,0-.2-.24,1.49,1.49,0,0,0-.4-.19,2.74,2.74,0,0,0-.53-.13,4.23,4.23,0,0,0-.63-.05" transform="translate(-566.5 -174.07)"/><path class="cls-9" d="M1199.52,682.06h-22.17a3.64,3.64,0,0,0-.6.05,1.71,1.71,0,0,0-.45.13.65.65,0,0,0-.27.19.27.27,0,0,0,0,.24l3,9.08a.5.5,0,0,0,.2.24,1.74,1.74,0,0,0,.41.2,3.67,3.67,0,0,0,.55.14,4.26,4.26,0,0,0,.63,0h22.59a3.7,3.7,0,0,0,.6,0,2.28,2.28,0,0,0,.46-.14.62.62,0,0,0,.26-.2.26.26,0,0,0,0-.24l-3.4-9.08a.57.57,0,0,0-.21-.24,1.57,1.57,0,0,0-.41-.19,2.67,2.67,0,0,0-.54-.13,4.23,4.23,0,0,0-.63-.05" transform="translate(-566.5 -174.07)"/><path class="cls-9" d="M1250.61,695.38H1231.9a3.09,3.09,0,0,0-.55,0,2.1,2.1,0,0,0-.42.12.57.57,0,0,0-.23.19.24.24,0,0,0,0,.23l4,9.63a.58.58,0,0,0,.21.24,2.14,2.14,0,0,0,.4.19,3.77,3.77,0,0,0,.53.12,3.83,3.83,0,0,0,.6.05h19.07a3.06,3.06,0,0,0,.56-.05,1.77,1.77,0,0,0,.42-.12.57.57,0,0,0,.23-.19.25.25,0,0,0,0-.24l-4.38-9.63a.53.53,0,0,0-.22-.23,2,2,0,0,0-.39-.19,3.62,3.62,0,0,0-.52-.12,3.86,3.86,0,0,0-.6,0" transform="translate(-566.5 -174.07)"/><path class="cls-9" d="M1222.46,695.38h-22.72a2.71,2.71,0,0,0-.59,0,1.79,1.79,0,0,0-.46.13.86.86,0,0,0-.27.2.28.28,0,0,0,0,.25l3.43,9.53a.56.56,0,0,0,.22.25,1.64,1.64,0,0,0,.42.21,3.06,3.06,0,0,0,.56.14,4.51,4.51,0,0,0,.65.05h23.14a3.8,3.8,0,0,0,.62-.05,1.67,1.67,0,0,0,.46-.14.75.75,0,0,0,.27-.21.25.25,0,0,0,0-.25l-3.86-9.53a.59.59,0,0,0-.23-.25,2.06,2.06,0,0,0-.42-.2,3.06,3.06,0,0,0-.56-.13,3.49,3.49,0,0,0-.65,0" transform="translate(-566.5 -174.07)"/><path class="cls-9" d="M1191.4,695.38h-22.72a2.9,2.9,0,0,0-.61,0,1.79,1.79,0,0,0-.46.13.76.76,0,0,0-.27.2.26.26,0,0,0,0,.25l2.91,9.53a.57.57,0,0,0,.2.25,1.74,1.74,0,0,0,.41.21,2.69,2.69,0,0,0,.56.14,4.37,4.37,0,0,0,.64.05h23.15a3.8,3.8,0,0,0,.62-.05,1.67,1.67,0,0,0,.46-.14.61.61,0,0,0,.27-.21.28.28,0,0,0,0-.25l-3.34-9.53a.68.68,0,0,0-.21-.25,2.24,2.24,0,0,0-.41-.2,3,3,0,0,0-.55-.13,3.32,3.32,0,0,0-.64,0" transform="translate(-566.5 -174.07)"/><path class="cls-9" d="M1160.33,695.38h-22.71a3,3,0,0,0-.62,0,1.88,1.88,0,0,0-.47.13.86.86,0,0,0-.29.2.3.3,0,0,0-.07.25l2.4,9.53a.48.48,0,0,0,.19.25,1.49,1.49,0,0,0,.4.21,2.69,2.69,0,0,0,.56.14,4.37,4.37,0,0,0,.64.05h23.15a3.76,3.76,0,0,0,.61-.05,1.64,1.64,0,0,0,.47-.14.75.75,0,0,0,.29-.21.26.26,0,0,0,0-.25l-2.82-9.53a.57.57,0,0,0-.2-.25,2.13,2.13,0,0,0-.4-.2,2.78,2.78,0,0,0-.55-.13,3.22,3.22,0,0,0-.63,0" transform="translate(-566.5 -174.07)"/><path class="cls-9" d="M1129.25,695.38h-22.7a2.9,2.9,0,0,0-.61,0,1.84,1.84,0,0,0-.48.13,1,1,0,0,0-.31.2.3.3,0,0,0-.07.25l1.87,9.53a.46.46,0,0,0,.18.25,1.42,1.42,0,0,0,.39.21,2.59,2.59,0,0,0,.55.14,4.37,4.37,0,0,0,.64.05h23.13a4,4,0,0,0,.63-.05,2,2,0,0,0,.48-.14.79.79,0,0,0,.3-.21.3.3,0,0,0,.07-.25L1131,696a.48.48,0,0,0-.19-.25,1.76,1.76,0,0,0-.39-.2,2.67,2.67,0,0,0-.54-.13,3.26,3.26,0,0,0-.64,0" transform="translate(-566.5 -174.07)"/><path class="cls-9" d="M1098.19,695.38h-22.7a3.05,3.05,0,0,0-.62,0,2.19,2.19,0,0,0-.49.13,1.11,1.11,0,0,0-.31.2.31.31,0,0,0-.09.25l1.36,9.53a.41.41,0,0,0,.16.25,1.22,1.22,0,0,0,.38.21,2.66,2.66,0,0,0,.54.14,4.37,4.37,0,0,0,.64.05h23.13a4,4,0,0,0,.63-.05,2,2,0,0,0,.49-.14.84.84,0,0,0,.31-.21.27.27,0,0,0,.08-.25l-1.79-9.53a.49.49,0,0,0-.17-.25,1.91,1.91,0,0,0-.38-.2,2.67,2.67,0,0,0-.54-.13,3.16,3.16,0,0,0-.63,0" transform="translate(-566.5 -174.07)"/><path class="cls-9" d="M1067.13,695.38h-22.7a2.94,2.94,0,0,0-.62,0,2.14,2.14,0,0,0-.5.13,1.25,1.25,0,0,0-.33.2.32.32,0,0,0-.1.25l.84,9.53a.4.4,0,0,0,.15.25,1.29,1.29,0,0,0,.37.21,2.4,2.4,0,0,0,.53.14,4.26,4.26,0,0,0,.64.05h23.13a4,4,0,0,0,.63-.05,2.12,2.12,0,0,0,.5-.14.89.89,0,0,0,.32-.21.32.32,0,0,0,.1-.25l-1.28-9.53a.41.41,0,0,0-.16-.25,1.39,1.39,0,0,0-.37-.2,2.47,2.47,0,0,0-.52-.13,3.22,3.22,0,0,0-.63,0" transform="translate(-566.5 -174.07)"/><path class="cls-9" d="M1036.06,695.38h-22.7a3.05,3.05,0,0,0-.62,0,2.14,2.14,0,0,0-.5.13,1.17,1.17,0,0,0-.34.2.35.35,0,0,0-.12.25l.33,9.53a.36.36,0,0,0,.13.25,1.22,1.22,0,0,0,.36.21,2.46,2.46,0,0,0,.52.14,4.26,4.26,0,0,0,.64.05h23.13a4,4,0,0,0,.63-.05,2.21,2.21,0,0,0,.51-.14.94.94,0,0,0,.33-.21.3.3,0,0,0,.11-.25l-.76-9.53a.34.34,0,0,0-.14-.25,1.49,1.49,0,0,0-.36-.2,2.47,2.47,0,0,0-.52-.13,3.16,3.16,0,0,0-.63,0" transform="translate(-566.5 -174.07)"/><path class="cls-9" d="M1005,695.38H982.28a3,3,0,0,0-.61,0,2.23,2.23,0,0,0-.51.13,1.41,1.41,0,0,0-.35.2.41.41,0,0,0-.13.25l-.19,9.53a.35.35,0,0,0,.12.25,1,1,0,0,0,.35.21,2.08,2.08,0,0,0,.51.14,4,4,0,0,0,.62.05h23.15a4.13,4.13,0,0,0,.63-.05,2.3,2.3,0,0,0,.52-.14,1.1,1.1,0,0,0,.34-.21.31.31,0,0,0,.12-.25l-.23-9.53a.38.38,0,0,0-.14-.25,1.33,1.33,0,0,0-.34-.2,2.32,2.32,0,0,0-.52-.13,3.05,3.05,0,0,0-.62,0" transform="translate(-566.5 -174.07)"/><path class="cls-9" d="M973.94,695.38H951.22a3.05,3.05,0,0,0-.62,0,2.23,2.23,0,0,0-.51.13,1.49,1.49,0,0,0-.36.2.34.34,0,0,0-.14.25l-.72,9.53a.38.38,0,0,0,.11.25,1,1,0,0,0,.33.21,2.36,2.36,0,0,0,.51.14,4,4,0,0,0,.62.05h23.15a4.13,4.13,0,0,0,.63-.05,2.4,2.4,0,0,0,.53-.14,1,1,0,0,0,.35-.21.34.34,0,0,0,.14-.25l.28-9.53a.35.35,0,0,0-.12-.25,1.17,1.17,0,0,0-.34-.2,2.14,2.14,0,0,0-.5-.13,3.05,3.05,0,0,0-.62,0" transform="translate(-566.5 -174.07)"/><path class="cls-9" d="M942.87,695.38H920.15a3.22,3.22,0,0,0-.63,0,2.47,2.47,0,0,0-.52.13,1.39,1.39,0,0,0-.37.2.41.41,0,0,0-.16.25l-1.23,9.53a.29.29,0,0,0,.1.25.89.89,0,0,0,.32.21,2.12,2.12,0,0,0,.5.14,4,4,0,0,0,.63.05h23.15a4.23,4.23,0,0,0,.63-.05,2.46,2.46,0,0,0,.52-.14,1.29,1.29,0,0,0,.37-.21.4.4,0,0,0,.15-.25l.79-9.53a.32.32,0,0,0-.1-.25,1.25,1.25,0,0,0-.33-.2,1.93,1.93,0,0,0-.49-.13,2.9,2.9,0,0,0-.61,0" transform="translate(-566.5 -174.07)"/><path class="cls-9" d="M911.81,695.38H889.09a3.16,3.16,0,0,0-.63,0,2.67,2.67,0,0,0-.54.13,1.91,1.91,0,0,0-.38.2.49.49,0,0,0-.17.25l-1.74,9.53a.27.27,0,0,0,.08.25.84.84,0,0,0,.31.21,2,2,0,0,0,.49.14,4,4,0,0,0,.63.05h23.15a4.23,4.23,0,0,0,.63-.05,2.4,2.4,0,0,0,.53-.14,1.35,1.35,0,0,0,.38-.21.41.41,0,0,0,.16-.25L913.3,696a.28.28,0,0,0-.09-.25,1,1,0,0,0-.31-.2,2.09,2.09,0,0,0-.48-.13,3,3,0,0,0-.61,0" transform="translate(-566.5 -174.07)"/><path class="cls-9" d="M880.73,695.38H858a3.32,3.32,0,0,0-.64,0,2.67,2.67,0,0,0-.54.13,1.76,1.76,0,0,0-.39.2.54.54,0,0,0-.19.25L854,705.54a.27.27,0,0,0,.07.25.72.72,0,0,0,.3.21,2,2,0,0,0,.48.14,4,4,0,0,0,.63.05h23.13a4.37,4.37,0,0,0,.64-.05,2.76,2.76,0,0,0,.55-.14,1.42,1.42,0,0,0,.39-.21.43.43,0,0,0,.17-.25l1.84-9.53a.34.34,0,0,0-.08-.25,1,1,0,0,0-.31-.2,1.84,1.84,0,0,0-.48-.13,2.9,2.9,0,0,0-.61,0" transform="translate(-566.5 -174.07)"/><path class="cls-9" d="M849.66,695.38H827a3.39,3.39,0,0,0-.64,0,2.67,2.67,0,0,0-.54.13,2,2,0,0,0-.41.2.48.48,0,0,0-.19.25l-2.79,9.53a.29.29,0,0,0,.06.25.75.75,0,0,0,.29.21,1.86,1.86,0,0,0,.47.14,4,4,0,0,0,.62.05H847a4.37,4.37,0,0,0,.64-.05,2.69,2.69,0,0,0,.56-.14,1.49,1.49,0,0,0,.4-.21.48.48,0,0,0,.19-.25l2.35-9.53a.27.27,0,0,0-.07-.25.86.86,0,0,0-.29-.2,1.88,1.88,0,0,0-.47-.13,3,3,0,0,0-.62,0" transform="translate(-566.5 -174.07)"/><path class="cls-9" d="M818.6,695.38H795.9a3.32,3.32,0,0,0-.64,0,3.06,3.06,0,0,0-.56.13,2.24,2.24,0,0,0-.41.2.53.53,0,0,0-.21.25l-3.3,9.53a.25.25,0,0,0,0,.25.64.64,0,0,0,.28.21,1.64,1.64,0,0,0,.47.14,3.76,3.76,0,0,0,.61.05h23.13a4.65,4.65,0,0,0,.66-.05,3.06,3.06,0,0,0,.56-.14,1.74,1.74,0,0,0,.41-.21.51.51,0,0,0,.2-.25L820,696a.26.26,0,0,0,0-.25.92.92,0,0,0-.28-.2,1.88,1.88,0,0,0-.47-.13,2.9,2.9,0,0,0-.61,0" transform="translate(-566.5 -174.07)"/><path class="cls-9" d="M787.57,695.38H734.16a3.28,3.28,0,0,0-.63,0,3,3,0,0,0-.57.13,2.17,2.17,0,0,0-.43.2.7.7,0,0,0-.24.25L728,705.54a.27.27,0,0,0,0,.25.63.63,0,0,0,.26.21,1.59,1.59,0,0,0,.45.14,3.64,3.64,0,0,0,.6.05H783.7a4.51,4.51,0,0,0,.65-.05,3,3,0,0,0,.57-.14,1.64,1.64,0,0,0,.42-.21.51.51,0,0,0,.22-.25L789,696a.28.28,0,0,0,0-.25.76.76,0,0,0-.27-.2,1.79,1.79,0,0,0-.46-.13,2.9,2.9,0,0,0-.61,0" transform="translate(-566.5 -174.07)"/><path class="cls-9" d="M793.42,709.34h-65.7a3.83,3.83,0,0,0-.6,0,2.74,2.74,0,0,0-.53.13,1.49,1.49,0,0,0-.4.19.63.63,0,0,0-.23.23l-4.6,10.13a.25.25,0,0,0,0,.24.51.51,0,0,0,.23.2,1.48,1.48,0,0,0,.42.13,2.52,2.52,0,0,0,.57.05h67a2.92,2.92,0,0,0,.6-.05,2.67,2.67,0,0,0,.54-.13,1.58,1.58,0,0,0,.39-.2.51.51,0,0,0,.21-.24l3.41-10.13a.24.24,0,0,0,0-.23.61.61,0,0,0-.26-.19,1.56,1.56,0,0,0-.43-.13,3.27,3.27,0,0,0-.57,0" transform="translate(-566.5 -174.07)"/><path class="cls-9" d="M1256.92,709.34h-85.56a3.27,3.27,0,0,0-.57,0,1.64,1.64,0,0,0-.44.13.61.61,0,0,0-.26.19.24.24,0,0,0,0,.23l3.06,10.13a.55.55,0,0,0,.2.24,1.5,1.5,0,0,0,.38.2,2.74,2.74,0,0,0,.53.13,3,3,0,0,0,.61.05h87.22a2.61,2.61,0,0,0,.58-.05,1.39,1.39,0,0,0,.42-.13.61.61,0,0,0,.24-.2.25.25,0,0,0,0-.24l-4.59-10.13a.63.63,0,0,0-.23-.23,1.66,1.66,0,0,0-.4-.19,2.85,2.85,0,0,0-.54-.13,4,4,0,0,0-.61,0" transform="translate(-566.5 -174.07)"/><path class="cls-9" d="M826.24,709.34H801.71a4.8,4.8,0,0,0-.67,0,4.07,4.07,0,0,0-.58.15,1.44,1.44,0,0,0-.43.22.58.58,0,0,0-.22.26l-3.27,10a.29.29,0,0,0,0,.27.74.74,0,0,0,.3.23,2.38,2.38,0,0,0,.49.15,4.16,4.16,0,0,0,.64.05h25a4.83,4.83,0,0,0,.68-.05,4.07,4.07,0,0,0,.58-.15,1.56,1.56,0,0,0,.43-.23.6.6,0,0,0,.22-.27l2.79-10a.28.28,0,0,0-.05-.26.78.78,0,0,0-.3-.22,2.59,2.59,0,0,0-.49-.15,4.16,4.16,0,0,0-.64,0" transform="translate(-566.5 -174.07)"/><path class="cls-9" d="M859.67,709.34H835.14a4.8,4.8,0,0,0-.67,0,3.92,3.92,0,0,0-.57.15,1.38,1.38,0,0,0-.42.22.47.47,0,0,0-.2.26l-2.71,10a.33.33,0,0,0,.06.27.86.86,0,0,0,.31.23,2.71,2.71,0,0,0,.5.15,4.19,4.19,0,0,0,.65.05h25a4.83,4.83,0,0,0,.68-.05,4.07,4.07,0,0,0,.58-.15,1.43,1.43,0,0,0,.41-.23.49.49,0,0,0,.2-.27l2.23-10a.32.32,0,0,0-.07-.26.82.82,0,0,0-.31-.22,2.71,2.71,0,0,0-.5-.15,4.26,4.26,0,0,0-.64,0" transform="translate(-566.5 -174.07)"/><path class="cls-9" d="M893.11,709.34H868.58a4.65,4.65,0,0,0-.66,0,3.92,3.92,0,0,0-.57.15,1.26,1.26,0,0,0-.4.22.5.5,0,0,0-.19.26l-2.13,10a.31.31,0,0,0,.07.27.91.91,0,0,0,.32.23,2.6,2.6,0,0,0,.51.15,4.4,4.4,0,0,0,.65.05h25a4.8,4.8,0,0,0,.67-.05,3.92,3.92,0,0,0,.57-.15,1.5,1.5,0,0,0,.4-.23A.45.45,0,0,0,893,720l1.66-10a.28.28,0,0,0-.09-.26.79.79,0,0,0-.32-.22,2.6,2.6,0,0,0-.51-.15,4.16,4.16,0,0,0-.64,0" transform="translate(-566.5 -174.07)"/><path class="cls-9" d="M926.54,709.34H902a4.54,4.54,0,0,0-.66,0,3.47,3.47,0,0,0-.56.15,1.21,1.21,0,0,0-.39.22.41.41,0,0,0-.17.26l-1.57,10a.36.36,0,0,0,.09.27,1.07,1.07,0,0,0,.33.23,3,3,0,0,0,.52.15,4.43,4.43,0,0,0,.66.05h25a4.57,4.57,0,0,0,.67-.05,3.47,3.47,0,0,0,.56-.15,1.3,1.3,0,0,0,.39-.23.43.43,0,0,0,.17-.27l1.09-10a.34.34,0,0,0-.1-.26.87.87,0,0,0-.34-.22,2.72,2.72,0,0,0-.52-.15,4.16,4.16,0,0,0-.64,0" transform="translate(-566.5 -174.07)"/><path class="cls-9" d="M960,709.34H935.45a4.4,4.4,0,0,0-.65,0,3.33,3.33,0,0,0-.55.15,1.06,1.06,0,0,0-.38.22.43.43,0,0,0-.16.26l-1,10a.34.34,0,0,0,.11.27,1.12,1.12,0,0,0,.34.23,3.07,3.07,0,0,0,.53.15,4.54,4.54,0,0,0,.66.05h25a4.54,4.54,0,0,0,.66-.05,3.08,3.08,0,0,0,.55-.15,1.23,1.23,0,0,0,.38-.23.39.39,0,0,0,.15-.27l.52-10a.3.3,0,0,0-.12-.26.87.87,0,0,0-.34-.22,3.07,3.07,0,0,0-.53-.15,4.4,4.4,0,0,0-.65,0" transform="translate(-566.5 -174.07)"/><path class="cls-9" d="M993.41,709.34H968.88a4.4,4.4,0,0,0-.65,0,3.2,3.2,0,0,0-.54.15,1,1,0,0,0-.37.22.36.36,0,0,0-.14.26l-.43,10a.35.35,0,0,0,.12.27,1.12,1.12,0,0,0,.36.23,3.07,3.07,0,0,0,.53.15,4.68,4.68,0,0,0,.67.05h25a4.68,4.68,0,0,0,.67-.05,3.49,3.49,0,0,0,.54-.15,1.12,1.12,0,0,0,.36-.23.38.38,0,0,0,.14-.27l0-10a.38.38,0,0,0-.13-.26,1,1,0,0,0-.36-.22,3.49,3.49,0,0,0-.54-.15,4.4,4.4,0,0,0-.65,0" transform="translate(-566.5 -174.07)"/><path class="cls-9" d="M1026.86,709.34h-24.53a4.43,4.43,0,0,0-.66,0,3.35,3.35,0,0,0-.53.15.92.92,0,0,0-.35.22.35.35,0,0,0-.13.26l.14,10a.38.38,0,0,0,.14.27,1.17,1.17,0,0,0,.37.23,3.2,3.2,0,0,0,.54.15,4.68,4.68,0,0,0,.67.05h25a4.68,4.68,0,0,0,.67-.05,3.07,3.07,0,0,0,.53-.15,1.06,1.06,0,0,0,.35-.23.39.39,0,0,0,.12-.27l-.62-10a.37.37,0,0,0-.15-.26,1,1,0,0,0-.37-.22,3.2,3.2,0,0,0-.54-.15,4.4,4.4,0,0,0-.65,0" transform="translate(-566.5 -174.07)"/><path class="cls-9" d="M1060.28,709.34h-24.53a4.4,4.4,0,0,0-.65,0,3.22,3.22,0,0,0-.52.15,1,1,0,0,0-.34.22.32.32,0,0,0-.11.26l.71,10a.39.39,0,0,0,.15.27,1.23,1.23,0,0,0,.38.23,3.47,3.47,0,0,0,.56.15,4.54,4.54,0,0,0,.66.05h25a4.43,4.43,0,0,0,.66-.05,2.72,2.72,0,0,0,.52-.15.92.92,0,0,0,.34-.23.33.33,0,0,0,.1-.27L1062,710a.43.43,0,0,0-.16-.26,1.21,1.21,0,0,0-.39-.22,3.63,3.63,0,0,0-.55-.15,4.54,4.54,0,0,0-.66,0" transform="translate(-566.5 -174.07)"/><path class="cls-9" d="M1093.73,709.34H1069.2a4.4,4.4,0,0,0-.65,0,2.83,2.83,0,0,0-.51.15.83.83,0,0,0-.33.22.31.31,0,0,0-.1.26l1.28,10a.43.43,0,0,0,.17.27,1.43,1.43,0,0,0,.39.23,3.92,3.92,0,0,0,.57.15,4.57,4.57,0,0,0,.67.05h25a4.43,4.43,0,0,0,.66-.05,2.6,2.6,0,0,0,.51-.15.87.87,0,0,0,.33-.23.36.36,0,0,0,.09-.27l-1.76-10a.43.43,0,0,0-.18-.26,1.21,1.21,0,0,0-.39-.22,4.14,4.14,0,0,0-.56-.15,4.65,4.65,0,0,0-.66,0" transform="translate(-566.5 -174.07)"/><path class="cls-9" d="M1127.15,709.34h-24.53a4.26,4.26,0,0,0-.64,0,2.71,2.71,0,0,0-.5.15.79.79,0,0,0-.32.22.29.29,0,0,0-.08.26l1.84,10a.52.52,0,0,0,.19.27,1.43,1.43,0,0,0,.41.23,3.61,3.61,0,0,0,.57.15,4.8,4.8,0,0,0,.67.05h25a4.4,4.4,0,0,0,.65-.05,2.6,2.6,0,0,0,.51-.15.86.86,0,0,0,.31-.23.31.31,0,0,0,.07-.27L1129,710a.47.47,0,0,0-.2-.26,1.22,1.22,0,0,0-.41-.22,3.47,3.47,0,0,0-.56-.15,4.68,4.68,0,0,0-.67,0" transform="translate(-566.5 -174.07)"/><path class="cls-9" d="M1160.6,709.34h-24.53a4.16,4.16,0,0,0-.64,0,2.71,2.71,0,0,0-.5.15.71.71,0,0,0-.3.22.29.29,0,0,0-.07.26l2.42,10a.49.49,0,0,0,.2.27,1.49,1.49,0,0,0,.42.23,4.07,4.07,0,0,0,.58.15,4.83,4.83,0,0,0,.68.05h25a4.19,4.19,0,0,0,.65-.05,2.71,2.71,0,0,0,.5-.15.82.82,0,0,0,.3-.23.3.3,0,0,0,0-.27l-2.89-10a.55.55,0,0,0-.21-.26,1.38,1.38,0,0,0-.42-.22,3.92,3.92,0,0,0-.57-.15,4.8,4.8,0,0,0-.67,0" transform="translate(-566.5 -174.07)"/><path class="cls-9" d="M749.71,724H721.1a4.21,4.21,0,0,0-.62,0,2.66,2.66,0,0,0-.54.14,1.64,1.64,0,0,0-.42.2.67.67,0,0,0-.23.25l-4.83,10.63a.27.27,0,0,0,0,.26.53.53,0,0,0,.23.21,2,2,0,0,0,.43.15,3.39,3.39,0,0,0,.58.05h29.19a4.21,4.21,0,0,0,.62-.05,4.14,4.14,0,0,0,.56-.15,1.64,1.64,0,0,0,.42-.21.69.69,0,0,0,.23-.26L751,724.64a.25.25,0,0,0,0-.25.65.65,0,0,0-.25-.2,1.63,1.63,0,0,0-.44-.14,3.27,3.27,0,0,0-.57,0" transform="translate(-566.5 -174.07)"/><path class="cls-9" d="M787.23,724h-28.6a4,4,0,0,0-.61,0,2.66,2.66,0,0,0-.54.14,1.64,1.64,0,0,0-.42.2.6.6,0,0,0-.21.25l-4.17,10.63a.27.27,0,0,0,0,.26.63.63,0,0,0,.26.21,2.05,2.05,0,0,0,.44.15,3.42,3.42,0,0,0,.59.05h29.16a4.23,4.23,0,0,0,.63-.05,3.63,3.63,0,0,0,.55-.15,1.49,1.49,0,0,0,.4-.21.55.55,0,0,0,.21-.26l3.61-10.63a.25.25,0,0,0,0-.25.62.62,0,0,0-.26-.2,1.42,1.42,0,0,0-.44-.14,3.39,3.39,0,0,0-.58,0" transform="translate(-566.5 -174.07)"/><path class="cls-9" d="M822.65,724H797.47a3.74,3.74,0,0,0-.68.06,4.38,4.38,0,0,0-.6.15,1.81,1.81,0,0,0-.44.23.59.59,0,0,0-.23.28l-3.43,10.47a.33.33,0,0,0,0,.29.79.79,0,0,0,.29.24,2,2,0,0,0,.51.16,3.37,3.37,0,0,0,.66.06h25.68a4,4,0,0,0,.7-.06,3.27,3.27,0,0,0,.6-.16,1.64,1.64,0,0,0,.44-.24.59.59,0,0,0,.22-.29l2.93-10.47a.29.29,0,0,0-.06-.28.74.74,0,0,0-.3-.23,2.71,2.71,0,0,0-.5-.15,3.37,3.37,0,0,0-.66-.06" transform="translate(-566.5 -174.07)"/><path class="cls-9" d="M857,724h-25.2a3.66,3.66,0,0,0-.68.06,3.89,3.89,0,0,0-.59.15,1.73,1.73,0,0,0-.43.23.59.59,0,0,0-.21.28l-2.83,10.47a.33.33,0,0,0,.06.29.8.8,0,0,0,.31.24,2.19,2.19,0,0,0,.51.16,3.48,3.48,0,0,0,.67.06h25.7a3.77,3.77,0,0,0,.69-.06,3.27,3.27,0,0,0,.6-.16,1.66,1.66,0,0,0,.42-.24.57.57,0,0,0,.21-.29l2.33-10.47a.33.33,0,0,0-.08-.28.78.78,0,0,0-.31-.23,2.72,2.72,0,0,0-.52-.15A3.2,3.2,0,0,0,857,724" transform="translate(-566.5 -174.07)"/><path class="cls-9" d="M1028.61,724H866.13a3.66,3.66,0,0,0-.68.06,3.75,3.75,0,0,0-.58.15,1.65,1.65,0,0,0-.42.23.54.54,0,0,0-.19.28L862,735.19a.31.31,0,0,0,.07.29.88.88,0,0,0,.33.24,2.13,2.13,0,0,0,.52.16,3.48,3.48,0,0,0,.67.06h165.71a3.69,3.69,0,0,0,.69-.06,2.66,2.66,0,0,0,.56-.16,1.25,1.25,0,0,0,.36-.24.42.42,0,0,0,.12-.29l-.67-10.47a.41.41,0,0,0-.15-.28,1.23,1.23,0,0,0-.38-.23,3.47,3.47,0,0,0-.56-.15,3.69,3.69,0,0,0-.69-.06" transform="translate(-566.5 -174.07)"/><path class="cls-9" d="M1063,724h-25.18a3.37,3.37,0,0,0-.66.06,3,3,0,0,0-.54.15,1.06,1.06,0,0,0-.35.23.36.36,0,0,0-.11.28l.76,10.47a.43.43,0,0,0,.16.29,1.3,1.3,0,0,0,.39.24,2.76,2.76,0,0,0,.57.16,3.66,3.66,0,0,0,.68.06h25.68a3.66,3.66,0,0,0,.68-.06,2.37,2.37,0,0,0,.53-.16,1,1,0,0,0,.35-.24.33.33,0,0,0,.1-.29l-1.26-10.47a.45.45,0,0,0-.17-.28,1.3,1.3,0,0,0-.39-.23,3.92,3.92,0,0,0-.57-.15,3.55,3.55,0,0,0-.67-.06" transform="translate(-566.5 -174.07)"/><path class="cls-9" d="M1097.27,724h-25.18a3.37,3.37,0,0,0-.66.06,3.07,3.07,0,0,0-.53.15,1,1,0,0,0-.34.23.39.39,0,0,0-.1.28l1.37,10.47a.44.44,0,0,0,.17.29,1.43,1.43,0,0,0,.41.24,2.76,2.76,0,0,0,.57.16,3.85,3.85,0,0,0,.69.06h25.68a3.51,3.51,0,0,0,.68-.06,2.31,2.31,0,0,0,.54-.16.88.88,0,0,0,.33-.24.32.32,0,0,0,.09-.29l-1.86-10.47a.49.49,0,0,0-.19-.28,1.43,1.43,0,0,0-.41-.23,3.61,3.61,0,0,0-.57-.15,3.85,3.85,0,0,0-.69-.06" transform="translate(-566.5 -174.07)"/><path class="cls-9" d="M1131.6,724h-25.18a3.27,3.27,0,0,0-.65.06,2.72,2.72,0,0,0-.52.15,1,1,0,0,0-.33.23.33.33,0,0,0-.08.28l2,10.47a.53.53,0,0,0,.19.29,1.66,1.66,0,0,0,.42.24,3,3,0,0,0,.59.16,3.85,3.85,0,0,0,.69.06h25.68a3.48,3.48,0,0,0,.67-.06,2.13,2.13,0,0,0,.52-.16.92.92,0,0,0,.32-.24.34.34,0,0,0,.07-.29l-2.46-10.47a.64.64,0,0,0-.2-.28,1.65,1.65,0,0,0-.42-.23,4.22,4.22,0,0,0-.59-.15,3.66,3.66,0,0,0-.68-.06" transform="translate(-566.5 -174.07)"/><path class="cls-9" d="M1165.94,724h-25.2a3.2,3.2,0,0,0-.65.06,2.6,2.6,0,0,0-.51.15.78.78,0,0,0-.31.23.3.3,0,0,0-.07.28l2.56,10.47a.52.52,0,0,0,.21.29,1.57,1.57,0,0,0,.43.24,3.07,3.07,0,0,0,.6.16,3.77,3.77,0,0,0,.69.06h25.7a3.3,3.3,0,0,0,.66-.06,1.92,1.92,0,0,0,.51-.16.8.8,0,0,0,.31-.24.33.33,0,0,0,.05-.29l-3.06-10.47a.53.53,0,0,0-.21-.28,1.64,1.64,0,0,0-.44-.23,3.89,3.89,0,0,0-.59-.15,3.66,3.66,0,0,0-.68-.06" transform="translate(-566.5 -174.07)"/><path class="cls-9" d="M1233.62,730.59h-24.1a3.27,3.27,0,0,0-.65.06,2.27,2.27,0,0,0-.48.15.75.75,0,0,0-.28.23.31.31,0,0,0,0,.28l1.39,3.9a.54.54,0,0,0,.23.28,1.89,1.89,0,0,0,.45.24,4.38,4.38,0,0,0,.6.15,3.85,3.85,0,0,0,.69.06h24.31a3.2,3.2,0,0,0,.65-.06,2.27,2.27,0,0,0,.48-.15.65.65,0,0,0,.27-.24.28.28,0,0,0,0-.28l-1.56-3.9a.68.68,0,0,0-.24-.28,2.46,2.46,0,0,0-.46-.23,4.38,4.38,0,0,0-.6-.15,3.82,3.82,0,0,0-.68-.06" transform="translate(-566.5 -174.07)"/><path class="cls-9" d="M1231,724h-23.84a3.16,3.16,0,0,0-.64.06,1.51,1.51,0,0,0-.48.15.64.64,0,0,0-.28.22.32.32,0,0,0,0,.27l1.34,3.76a.65.65,0,0,0,.23.28,2,2,0,0,0,.44.22,3.27,3.27,0,0,0,.6.16,4.83,4.83,0,0,0,.68,0h24a4.06,4.06,0,0,0,.64,0,1.8,1.8,0,0,0,.48-.16.62.62,0,0,0,.27-.22.31.31,0,0,0,0-.28l-1.5-3.76a.67.67,0,0,0-.24-.27,1.57,1.57,0,0,0-.45-.22,2.63,2.63,0,0,0-.6-.15,3.63,3.63,0,0,0-.67-.06" transform="translate(-566.5 -174.07)"/><path class="cls-9" d="M1200.64,730h-24.08a3.16,3.16,0,0,0-.64.06,1.89,1.89,0,0,0-.49.15.74.74,0,0,0-.3.23.31.31,0,0,0-.05.28l1.37,4.53a.52.52,0,0,0,.22.28,1.73,1.73,0,0,0,.43.24,4.38,4.38,0,0,0,.6.15,3.66,3.66,0,0,0,.68.06h24.31a3.2,3.2,0,0,0,.65-.06,2.38,2.38,0,0,0,.49-.15.79.79,0,0,0,.29-.24.31.31,0,0,0,0-.28l-1.57-4.53a.67.67,0,0,0-.23-.28,1.89,1.89,0,0,0-.45-.23,3,3,0,0,0-.59-.15,3.82,3.82,0,0,0-.68-.06" transform="translate(-566.5 -174.07)"/><path class="cls-9" d="M1266.09,730H1242a3.1,3.1,0,0,0-.64.06,1.81,1.81,0,0,0-.48.15.63.63,0,0,0-.27.23.3.3,0,0,0,0,.28l1.86,4.53a.59.59,0,0,0,.25.28,2,2,0,0,0,.46.24,4.54,4.54,0,0,0,.61.15,3.85,3.85,0,0,0,.69.06h24.31a3.1,3.1,0,0,0,.64-.06,2.27,2.27,0,0,0,.48-.15.68.68,0,0,0,.26-.24.31.31,0,0,0,0-.28l-2.06-4.53a.62.62,0,0,0-.26-.28,2,2,0,0,0-.46-.23,3.63,3.63,0,0,0-.61-.15,3.85,3.85,0,0,0-.69-.06" transform="translate(-566.5 -174.07)"/></g><path class="cls-10" d="M957.69,330.52H904.08A11.11,11.11,0,0,1,893,319.4V272.05a4.6,4.6,0,0,1,4.61-4.61h66.61a4.6,4.6,0,0,1,4.61,4.61V319.4A11.12,11.12,0,0,1,957.69,330.52Z" transform="translate(-566.5 -174.07)"/><path class="cls-11" d="M930.88,304.18a30,30,0,0,1-30-30V262a30,30,0,1,1,60,0v12.19A30.06,30.06,0,0,1,930.88,304.18Zm0-60.15A18,18,0,0,0,913,262v12.19a17.94,17.94,0,1,0,35.87,0V262A18,18,0,0,0,930.88,244Z" transform="translate(-566.5 -174.07)"/><path class="cls-12" d="M1304.93,390.5c-16.4-.11-30.83-5.56-39.38-13.83-8.55,8.27-23,13.72-39.38,13.83h-.5V419c0,47.36,39.88,54.48,39.88,54.48s39.88-7.12,39.88-54.48V390.51Z" transform="translate(-566.5 -174.07)"/><polyline class="cls-13" points="679.7 248.99 693.94 263.24 718.39 238.78"/><rect class="cls-8" x="463.03" y="142.05" width="137.91" height="297.97" rx="18.54"/><path class="cls-14" d="M1148.9,320.15h-16.65a5.31,5.31,0,0,0-5.18,4.13l-.12.51a5.33,5.33,0,0,1-5.18,4.12h-46.56a5.33,5.33,0,0,1-5.19-4.12l-.11-.51a5.33,5.33,0,0,0-5.19-4.13h-16.65a14.51,14.51,0,0,0-14.51,14.51V595.55a14.51,14.51,0,0,0,14.51,14.51H1148.9a14.51,14.51,0,0,0,14.52-14.51V334.66A14.52,14.52,0,0,0,1148.9,320.15Z" transform="translate(-566.5 -174.07)"/><path class="cls-15" d="M1143.51,440.8h-4.94a2.35,2.35,0,0,1-2.25-1.7,29.08,29.08,0,0,0-2.37-5.72,2.36,2.36,0,0,1,.38-2.8l3.5-3.5a2.34,2.34,0,0,0,0-3.3L1132,417.9a2.35,2.35,0,0,0-3.31,0l-3.49,3.5a2.36,2.36,0,0,1-2.8.38,29.08,29.08,0,0,0-5.72-2.37,2.35,2.35,0,0,1-1.7-2.25v-4.94a2.34,2.34,0,0,0-2.34-2.34h-8.31a2.34,2.34,0,0,0-2.34,2.34v4.94a2.34,2.34,0,0,1-1.71,2.25,29.24,29.24,0,0,0-5.71,2.37,2.36,2.36,0,0,1-2.8-.38l-3.5-3.5a2.34,2.34,0,0,0-3.3,0l-5.88,5.88a2.32,2.32,0,0,0,0,3.3l3.49,3.5a2.35,2.35,0,0,1,.39,2.8,29.08,29.08,0,0,0-2.37,5.72,2.35,2.35,0,0,1-2.25,1.7h-4.94a2.34,2.34,0,0,0-2.34,2.34v8.31a2.34,2.34,0,0,0,2.34,2.34h4.94a2.35,2.35,0,0,1,2.25,1.7,29.08,29.08,0,0,0,2.37,5.72,2.35,2.35,0,0,1-.39,2.8l-3.49,3.5a2.32,2.32,0,0,0,0,3.3l5.88,5.88a2.32,2.32,0,0,0,3.3,0l3.5-3.49a2.35,2.35,0,0,1,2.8-.39,29.24,29.24,0,0,0,5.71,2.37,2.34,2.34,0,0,1,1.71,2.25v4.94a2.34,2.34,0,0,0,2.34,2.34h8.31a2.34,2.34,0,0,0,2.34-2.34v-4.94a2.35,2.35,0,0,1,1.7-2.25,29.08,29.08,0,0,0,5.72-2.37,2.35,2.35,0,0,1,2.8.39l3.49,3.49a2.33,2.33,0,0,0,3.31,0l5.88-5.88a2.34,2.34,0,0,0,0-3.3l-3.5-3.5a2.36,2.36,0,0,1-.38-2.8,29.08,29.08,0,0,0,2.37-5.72,2.35,2.35,0,0,1,2.25-1.7h4.94a2.34,2.34,0,0,0,2.34-2.34v-8.31A2.34,2.34,0,0,0,1143.51,440.8Zm-35.08,26.26a19.76,19.76,0,1,1,19.76-19.76A19.76,19.76,0,0,1,1108.43,467.06Z" transform="translate(-566.5 -174.07)"/><path class="cls-15" d="M1089.67,497H1087a1.25,1.25,0,0,1-1.2-.9,15.06,15.06,0,0,0-1.25-3,1.25,1.25,0,0,1,.2-1.49l1.86-1.86a1.26,1.26,0,0,0,0-1.76l-3.13-3.13a1.26,1.26,0,0,0-1.76,0l-1.85,1.86a1.24,1.24,0,0,1-1.49.21,15.58,15.58,0,0,0-3-1.26,1.25,1.25,0,0,1-.91-1.2v-2.63a1.25,1.25,0,0,0-1.24-1.24h-4.42a1.25,1.25,0,0,0-1.25,1.24v2.63a1.25,1.25,0,0,1-.9,1.2,15.09,15.09,0,0,0-3,1.26,1.24,1.24,0,0,1-1.49-.21l-1.86-1.86a1.26,1.26,0,0,0-1.76,0l-3.12,3.13a1.24,1.24,0,0,0,0,1.76l1.86,1.86a1.25,1.25,0,0,1,.2,1.49,15.09,15.09,0,0,0-1.26,3,1.25,1.25,0,0,1-1.2.9h-2.62a1.25,1.25,0,0,0-1.25,1.25v4.42a1.25,1.25,0,0,0,1.25,1.24H1055a1.25,1.25,0,0,1,1.2.91,15.58,15.58,0,0,0,1.26,3,1.24,1.24,0,0,1-.2,1.48l-1.86,1.86a1.24,1.24,0,0,0,0,1.76l3.12,3.13a1.26,1.26,0,0,0,1.76,0l1.86-1.86a1.26,1.26,0,0,1,1.49-.21,14.53,14.53,0,0,0,3,1.26,1.25,1.25,0,0,1,.9,1.2v2.63a1.24,1.24,0,0,0,1.25,1.24h4.42a1.24,1.24,0,0,0,1.24-1.24v-2.63a1.25,1.25,0,0,1,.91-1.2,15,15,0,0,0,3-1.26,1.24,1.24,0,0,1,1.48.21l1.86,1.86a1.26,1.26,0,0,0,1.76,0l3.13-3.13a1.26,1.26,0,0,0,0-1.76l-1.86-1.86a1.24,1.24,0,0,1-.2-1.48,15.55,15.55,0,0,0,1.25-3,1.25,1.25,0,0,1,1.2-.91h2.63a1.24,1.24,0,0,0,1.24-1.24v-4.42A1.24,1.24,0,0,0,1089.67,497Zm-18.65,14a10.51,10.51,0,1,1,10.51-10.5A10.5,10.5,0,0,1,1071,510.94Z" transform="translate(-566.5 -174.07)"/><circle class="cls-16" cx="531.98" cy="291.04" r="38.77"/><polyline class="cls-17" points="512.64 289.02 526.88 303.26 551.33 278.81"/><line class="cls-18" x1="197.88" y1="177.62" x2="360.86" y2="177.62"/><line class="cls-18" x1="373.95" y1="177.62" x2="409.18" y2="177.62"/><line class="cls-19" x1="197.88" y1="193.05" x2="299.45" y2="193.05"/><line class="cls-20" x1="312.54" y1="193.05" x2="419.58" y2="193.05"/><line class="cls-20" x1="428.56" y1="193.05" x2="440.72" y2="193.05"/><line class="cls-21" x1="197.88" y1="208.49" x2="248.67" y2="208.49"/><line class="cls-22" x1="265.24" y1="208.49" x2="393.41" y2="208.49"/><line class="cls-20" x1="197.88" y1="223.92" x2="361.43" y2="223.92"/><line class="cls-20" x1="373.95" y1="223.92" x2="411.97" y2="223.92"/><line class="cls-20" x1="419.58" y1="223.92" x2="428.63" y2="223.92"/><line class="cls-20" x1="197.88" y1="239.36" x2="229.17" y2="239.36"/><line class="cls-20" x1="242.68" y1="239.36" x2="369.92" y2="239.36"/><line class="cls-23" x1="382.84" y1="239.36" x2="395.17" y2="239.36"/><line class="cls-24" x1="197.88" y1="254.79" x2="294.08" y2="254.79"/><line class="cls-25" x1="303.14" y1="254.79" x2="315.56" y2="254.79"/><line class="cls-20" x1="323.61" y1="254.79" x2="357.17" y2="254.79"/><line class="cls-20" x1="197.88" y1="270.23" x2="376.8" y2="270.23"/><line class="cls-20" x1="384.35" y1="270.23" x2="397.43" y2="270.23"/><line class="cls-18" x1="197.88" y1="318.79" x2="317.59" y2="318.79"/><line class="cls-18" x1="330.68" y1="318.79" x2="365.91" y2="318.79"/><line class="cls-26" x1="197.88" y1="334.23" x2="256.18" y2="334.23"/><line class="cls-27" x1="269.27" y1="334.23" x2="376.31" y2="334.23"/><line class="cls-28" x1="385.29" y1="334.23" x2="397.45" y2="334.23"/><line class="cls-29" x1="197.88" y1="349.66" x2="242.68" y2="349.66"/><line class="cls-30" x1="251.74" y1="349.66" x2="363.33" y2="349.66"/><line class="cls-20" x1="197.88" y1="365.1" x2="284.61" y2="365.1"/><line class="cls-20" x1="297.85" y1="365.1" x2="373.79" y2="365.1"/><line class="cls-20" x1="382.27" y1="365.1" x2="392.63" y2="365.1"/><line class="cls-20" x1="197.88" y1="380.53" x2="265.24" y2="380.53"/><line class="cls-20" x1="273.3" y1="380.53" x2="331.51" y2="380.53"/><line class="cls-20" x1="339.57" y1="380.53" x2="351.9" y2="380.53"/><line class="cls-31" x1="197.88" y1="395.97" x2="240.06" y2="395.97"/><line class="cls-32" x1="249.12" y1="395.97" x2="293.09" y2="395.97"/><line class="cls-20" x1="301.15" y1="395.97" x2="317.59" y2="395.97"/><line class="cls-20" x1="197.88" y1="411.4" x2="274.93" y2="411.4"/><line class="cls-20" x1="282.48" y1="411.4" x2="295.56" y2="411.4"/><path class="cls-33" d="M743.67,415.66H607.52A11.55,11.55,0,0,0,596,427.21v49a11.55,11.55,0,0,0,11.55,11.55H723.69L744.84,509V487.73a11.56,11.56,0,0,0,10.39-11.49v-49A11.56,11.56,0,0,0,743.67,415.66Z" transform="translate(-566.5 -174.07)"/><path class="cls-34" d="M1007.14,588.64H865.7a12,12,0,0,0-12,12v50.93a12,12,0,0,0,12,12H986.38l22,22v-22a12,12,0,0,0,10.78-11.95V600.64A12,12,0,0,0,1007.14,588.64Z" transform="translate(-566.5 -174.07)"/><text class="cls-35" transform="translate(317.13 465.22)">J<tspan class="cls-36" x="20.85" y="0">AV</tspan><tspan class="cls-37" x="77.56" y="0">A</tspan></text><path class="cls-38" d="M1231.89,522H1105c-6,0-10.77,3.88-10.77,8.66v36.74c0,4.49,4.24,8.17,9.67,8.61v19.76l19.72-19.71h108.25c5.95,0,10.77-3.88,10.77-8.66V530.67C1242.66,525.89,1237.84,522,1231.89,522Z" transform="translate(-566.5 -174.07)"/><path class="cls-39" d="M1317.91,252.57h-125a10.61,10.61,0,0,0-10.61,10.61v45a10.61,10.61,0,0,0,9.54,10.56v19.48l19.43-19.43h106.67a10.61,10.61,0,0,0,10.61-10.61v-45A10.61,10.61,0,0,0,1317.91,252.57Z" transform="translate(-566.5 -174.07)"/><text class="cls-40" transform="translate(66.39 294.28)">C<tspan class="cls-41" x="31.87" y="0">+</tspan><tspan class="cls-42" x="58.81" y="0">+</tspan></text><text class="cls-43" transform="translate(545.12 384.36)"><tspan class="cls-44">P</tspan><tspan class="cls-45" x="18.38" y="0">Y</tspan><tspan x="35.47" y="0">THON</tspan></text><text class="cls-46" transform="translate(666.73 123.05)">JS</text><circle class="cls-47" cx="364.38" cy="121.91" r="8.68"/><path class="cls-47" d="M930.88,317.74h0a5.54,5.54,0,0,1-5.53-5.53V300.63a5.54,5.54,0,0,1,5.53-5.54h0a5.54,5.54,0,0,1,5.54,5.54v11.58A5.54,5.54,0,0,1,930.88,317.74Z" transform="translate(-566.5 -174.07)"/></svg>